<mxfile host="app.diagrams.net" modified="2022-09-03T01:39:12.062Z" agent="5.0 (Windows NT 10.0; Win64; x64) AppleWebKit/537.36 (KHTML, like Gecko) Chrome/105.0.0.0 Safari/537.36" etag="l7k0C90u-E9czCca83UN" version="20.2.8" type="github">
  <diagram id="cHPiIkGnKBZ-qwNp1Fqs" name="Página-1">
    <mxGraphModel dx="1508" dy="553" grid="1" gridSize="10" guides="1" tooltips="1" connect="1" arrows="1" fold="1" page="1" pageScale="1" pageWidth="827" pageHeight="1169" math="0" shadow="0">
      <root>
        <mxCell id="0" />
        <mxCell id="1" parent="0" />
        <mxCell id="87GCZqK9oe9EleAZIWvs-24" value="" style="group" vertex="1" connectable="0" parent="1">
          <mxGeometry x="240" y="240" width="60" height="83.68" as="geometry" />
        </mxCell>
        <mxCell id="87GCZqK9oe9EleAZIWvs-17" value="" style="shape=image;verticalLabelPosition=bottom;labelBackgroundColor=default;verticalAlign=top;aspect=fixed;imageAspect=0;image=data:image/svg+xml,PHN2ZyB4bWxuczp4bGluaz0iaHR0cDovL3d3dy53My5vcmcvMTk5OS94bGluayIgeG1sbnM9Imh0dHA6Ly93d3cudzMub3JnLzIwMDAvc3ZnIiB4bWw6c3BhY2U9InByZXNlcnZlIiBzdHlsZT0iZW5hYmxlLWJhY2tncm91bmQ6bmV3IDAgMCAxODYuNCAxODYuNDsiIHZpZXdCb3g9IjAgMCAxODYuNCAxODYuNCIgeT0iMHB4IiB4PSIwcHgiIGlkPSJDYXBhXzEiIHZlcnNpb249IjEuMSI+JiN4YTs8c3R5bGUgdHlwZT0idGV4dC9jc3MiPiYjeGE7CS5zdDB7ZmlsbDp1cmwoI1NWR0lEXzFfKTt9JiN4YTsJLnN0MXtmaWxsOnVybCgjU1ZHSURfMl8pO30mI3hhOwkuc3Qye2ZpbGw6dXJsKCNTVkdJRF8zXyk7fSYjeGE7PC9zdHlsZT4mI3hhOzxnPiYjeGE7CTxsaW5lYXJHcmFkaWVudCB5Mj0iMTAyLjIzOTIiIHgyPSI5My42MDI4IiB5MT0iLTAuMTg2IiB4MT0iOTMuNjAyOCIgZ3JhZGllbnRVbml0cz0idXNlclNwYWNlT25Vc2UiIGlkPSJTVkdJRF8xXyI+JiN4YTsJCTxzdG9wIHN0eWxlPSJzdG9wLWNvbG9yOiMwRUE1RTkiIG9mZnNldD0iMCIvPiYjeGE7CQk8c3RvcCBzdHlsZT0ic3RvcC1jb2xvcjojMDI4NEM3IiBvZmZzZXQ9IjEiLz4mI3hhOwk8L2xpbmVhckdyYWRpZW50PiYjeGE7CTxwYXRoIGQ9Ik05OC4zLTAuMTljMy41MSwwLjU1LDcuMDcsMC45LDEwLjUyLDEuNjhjMTMuODksMy4xMywyMS45NiwxMi4wMiwyNC41OSwyNS44MmMxLjg3LDkuODQsMi41LDE5Ljg4LDEuMzksMjkuODEmIzEwOyYjOTsmIzk7Yy0yLjMsMjAuNDYtMTIuOTMsMzUuMDEtMzIuMiw0Mi43NmMtMy44NywxLjU2LTcuOTUsMy4xNC0xMi4yNSwxLjkxYy01LjU2LTEuNTktMTAuOTYtMy42LTE1Ljc5LTYuOTImIzEwOyYjOTsmIzk7QzYxLjM0LDg1LjgsNTMuOTIsNzMuMTYsNTIuMzgsNTcuMzFjLTEuMDMtMTAuNTYtMC41OC0yMS4xOSwxLjc0LTMxLjU4YzMtMTMuNDQsMTEuNDgtMjEuNTcsMjQuOTMtMjQuNDEmIzEwOyYjOTsmIzk7YzMuMjQtMC42OCw2LjU1LTEuMDEsOS44Mi0xLjVDOTIuMDEtMC4xOSw5NS4xNS0wLjE5LDk4LjMtMC4xOXogTTU4LjM1LDQ0LjAxYy0wLjE4LDAuMDEtMC4zNywwLjAxLTAuNTUsMC4wMiYjMTA7JiM5OyYjOTtjMC4zMyw1LjIyLDAuMjMsMTAuNTIsMS4wOCwxNS42NWMyLjczLDE2LjUsMTEuOTQsMjguMDQsMjcuNDQsMzQuNGMzLjAyLDEuMjQsNi4yMywyLjE3LDkuNTQsMS4zNyYjMTA7JiM5OyYjOTtjMTUuNDgtMy43OCwyNS40NC0xMy42MiwzMC43NC0yOC40MmMyLjU1LTcuMTIsMi42OS0xNC41NywyLjQ3LTIyLjAzYy0wLjAxLTAuMzUtMC4xLTAuNy0wLjE2LTEuMDYmIzEwOyYjOTsmIzk7Yy0xLjA3LDEuMjQtMS45NywyLjQ1LTMuMDYsMy40N2MtMS42NSwxLjU2LTMuMDMsMS41OS00LjgzLDAuMTljLTEuODYtMS40NS0zLjYzLTMuMDEtNS40Ny00LjQ4Yy0xMS4xNS04LjkyLTI4LjgyLTkuODktNDAuNzktMi4xJiMxMDsmIzk7JiM5O2MtMi45NywxLjkzLTUuNjQsNC4zNC04LjQ3LDYuNDljLTEuOTgsMS41MS0zLjMyLDEuNDctNS4xMS0wLjI1QzYwLjEzLDQ2LjI4LDU5LjI4LDQ1LjEsNTguMzUsNDQuMDF6IE04MC4wNSwxOC41JiMxMDsmIzk7JiM5O2MwLjg2LDIuMTgsMS43Miw0LjIzLDIuNDYsNi4zMmMwLjM2LDEsMC44MiwxLjIzLDEuODcsMWMyLjQ3LTAuNTMsNC45Ny0xLjI4LDcuNDUtMS4yM2MzLjY0LDAuMDcsNy4yNywwLjc4LDEwLjksMS4xNiYjMTA7JiM5OyYjOTtjMC41NCwwLjA2LDEuNDgtMC4wOCwxLjYzLTAuNGMxLTIuMjMsMS44My00LjUzLDIuNzQtNi44N0M5Ny45OCwxNS40OSw4OS4wOCwxNS40OCw4MC4wNSwxOC41eiIgY2xhc3M9InN0MCIvPiYjeGE7CTxsaW5lYXJHcmFkaWVudCB5Mj0iMTg2LjgxMzkiIHgyPSI5My42MDczIiB5MT0iMTUyLjA0NDkiIHgxPSI5My42MDczIiBncmFkaWVudFVuaXRzPSJ1c2VyU3BhY2VPblVzZSIgaWQ9IlNWR0lEXzJfIj4mI3hhOwkJPHN0b3Agc3R5bGU9InN0b3AtY29sb3I6IzBFQTVFOSIgb2Zmc2V0PSIwIi8+JiN4YTsJCTxzdG9wIHN0eWxlPSJzdG9wLWNvbG9yOiMwMjg0QzciIG9mZnNldD0iMSIvPiYjeGE7CTwvbGluZWFyR3JhZGllbnQ+JiN4YTsJPHBhdGggZD0iTTU0Ljc4LDE4Ni44MWMtMy4yNy0xLjAyLTYuNTYtMi4wNS05LjA0LTQuNmMtMS0xLjAzLTEuOTQtMi4xNS0yLjc3LTMuMzNjLTAuMzgtMC41My0wLjc2LTEuNDYtMC41My0xLjg5JiMxMDsmIzk7JiM5O2MwLjIzLTAuNDMsMS4yMS0wLjY0LDEuODYtMC42NWM0LjE3LTAuMDYsOC4zNC0wLjA4LDEyLjUtMC4wMWMxLjI5LDAuMDIsMi4xNC0wLjIzLDIuMTQtMS42N2MwLTMuNTUtMC4wMi03LjEtMC4wNi0xMC42NSYjMTA7JiM5OyYjOTtjLTAuMDEtMS4yMS0wLjY1LTEuNTgtMS44Ni0xLjU1Yy00LjIzLDAuMDgtOC40NiwwLjA2LTEyLjY4LDAuMDJjLTAuNjctMC4wMS0xLjMzLTAuMzMtMS45OS0wLjUxYzAuMTgtMC42NSwwLjIxLTEuNCwwLjU2LTEuOTUmIzEwOyYjOTsmIzk7YzMuNTEtNS4zOSw4LjU2LTguMTcsMTQuOTQtNy45NmM2LjYsMC4yMSwxMS42LDMuNDEsMTQuNzEsOS4yOWMwLjU5LDEuMTEsMS4xOCwxLjUzLDIuNDUsMS41M2MxMi4zMi0wLjA1LDI0LjY0LTAuMDYsMzYuOTcsMC4wMSYjMTA7JiM5OyYjOTtjMS40MywwLjAxLDIuMDgtMC40NywyLjc0LTEuNjljMy4xNC01Ljg5LDguMjEtOC45NywxNC43OS05LjEzYzYuMy0wLjE1LDExLjI5LDIuNjMsMTQuNzgsNy45NWMwLjMzLDAuNTEsMC43MywxLjQ2LDAuNTEsMS43MyYjMTA7JiM5OyYjOTtjLTAuMzYsMC40NS0xLjIsMC43LTEuODQsMC43MWMtNC4yOSwwLjA2LTguNTgsMC4wNy0xMi44NywwLjAyYy0xLjEtMC4wMS0xLjc3LDAuMjUtMS43NywxLjQzYy0wLjAxLDMuNjctMC4wMSw3LjMzLDAuMDEsMTEmIzEwOyYjOTsmIzk7YzAuMDEsMS4xNywwLjY2LDEuNDUsMS43NywxLjQ0YzQuMjktMC4wNiw4LjU4LTAuMDYsMTIuODctMC4wMWMwLjY1LDAuMDEsMS40OCwwLjI0LDEuODcsMC42OGMwLjIyLDAuMjQtMC4xOSwxLjIxLTAuNTEsMS43MyYjMTA7JiM5OyYjOTtjLTIuNDgsNC02LjA5LDYuNDUtMTAuNjEsNy42MmMtMC40NSwwLjEyLTAuODgsMC4zLTEuMzEsMC40NmMtMS42OSwwLTMuMzgsMC01LjA4LDBjLTAuMjEtMC4xMS0wLjQtMC4yNy0wLjYyLTAuMzImIzEwOyYjOTsmIzk7Yy01LjY5LTEuMTktOS43OS00LjQtMTIuNDUtOS41N2MtMC4yNi0wLjUtMS4xOS0wLjk0LTEuODEtMC45NGMtMTIuNTUtMC4wNS0yNS4xLTAuMDMtMzcuNjUtMC4wNmMtMS4wNSwwLTEuNTIsMC40LTIuMSwxLjIzJiMxMDsmIzk7JiM5O2MtMS40LDItMi44Niw0LjAxLTQuNTksNS43M2MtMi40MywyLjQyLTUuNywzLjIzLTguOTYsMy45M0M1Ny42OCwxODYuODEsNTYuMjMsMTg2LjgxLDU0Ljc4LDE4Ni44MXoiIGNsYXNzPSJzdDEiLz4mI3hhOwk8bGluZWFyR3JhZGllbnQgeTI9IjE3MS45OTg0IiB4Mj0iOTMuNjA0NiIgeTE9Ijk3LjE1MzciIHgxPSI5My42MDQ2IiBncmFkaWVudFVuaXRzPSJ1c2VyU3BhY2VPblVzZSIgaWQ9IlNWR0lEXzNfIj4mI3hhOwkJPHN0b3Agc3R5bGU9InN0b3AtY29sb3I6IzBFQTVFOSIgb2Zmc2V0PSIwIi8+JiN4YTsJCTxzdG9wIHN0eWxlPSJzdG9wLWNvbG9yOiMwMjg0QzciIG9mZnNldD0iMSIvPiYjeGE7CTwvbGluZWFyR3JhZGllbnQ+JiN4YTsJPHBhdGggZD0iTTQwLjM3LDE2OS4zNGMtMS4yLDAuOTQtMi4xNiwxLjc1LTMuMTksMi40N2MtMC4yNywwLjE5LTAuODIsMC4yNS0xLjExLDAuMTEmIzEwOyYjOTsmIzk7Yy02Ljg0LTMuMzgtMTMuMzctNy4xOC0xOC4wNC0xMy40OWMtMS4zNi0xLjg0LTEuODQtMy43NC0xLjM3LTYuMWMxLjc2LTguNzksMy45MS0xNy40NCw3Ljk1LTI1LjUyYzIuMTYtNC4zMiw1LTcuOTMsOS4zMS0xMC4zMSYjMTA7JiM5OyYjOTtjOC4wOC00LjQ3LDE2LjExLTkuMDQsMjQuMTUtMTMuNTljMi45Mi0xLjY1LDUuODItMy4zNiw4LjY5LTUuMDljMS41OS0wLjk2LDMtMC45LDQuNTIsMC4yMWM0LjM3LDMuMjIsOC44OSw2LjE3LDE0LjM1LDcuMjgmIzEwOyYjOTsmIzk7YzEuNTEsMC4zMSwyLjI5LDEuNDMsMi44LDIuODFjMS40MywzLjg1LDIuOSw3LjY4LDQuMzUsMTEuNTJjMC4yLDAuNTQsMC40NCwxLjA2LDAuODIsMS45N2MwLjc2LTEuOTcsMS4zOS0zLjU3LDIuMDEtNS4xOCYjMTA7JiM5OyYjOTtjMC42OS0xLjgxLDEuNTQtMy41NywyLTUuNDRjMC45Mi0zLjgxLDMuMDgtNS45Miw3LjA0LTYuNjdjNC4wMy0wLjc2LDcuMjctMy4zOCwxMC40Ny01Ljc5YzIuMDEtMS41MSwzLjctMS42OCw1LjkzLTAuMzkmIzEwOyYjOTsmIzk7YzEwLjQzLDYuMDQsMjAuODgsMTIuMDQsMzEuNDQsMTcuODRjNS40NCwyLjk5LDguODcsNy41NSwxMS4zNCwxMi45OWMzLjYsNy45Myw1LjUzLDE2LjM1LDYuODYsMjQuOSYjMTA7JiM5OyYjOTtjMC4xOCwxLjE2LTAuMzUsMi43MS0xLjA4LDMuNjljLTEuNjUsMi4yMi0zLjQsNC40NS01LjUsNi4yMWMtMy43OCwzLjE3LTcuOSw1LjkxLTEyLjQ3LDcuODVjLTAuNTUsMC4yMy0xLjQzLDAuMDYtMS45OS0wLjI0JiMxMDsmIzk7JiM5O2MtMC45OC0wLjUyLTEuODItMS4yOS0yLjUyLTEuOGMxLjM4LTEuNDUsMy4wNy0yLjY3LDQtNC4zMWMyLjIzLTMuOTIsMC42Ny03LjQ1LTEuOC0xMC43Yy05Ljg2LTEyLjk4LTI5LjA3LTEzLjA2LTM4LjkzLTAuMTMmIzEwOyYjOTsmIzk7Yy0wLjY2LDAuODctMS4zNCwxLjE4LTIuNDEsMS4xN2MtOS42MS0wLjA0LTE5LjIyLTAuMDQtMjguODIsMC4wMWMtMS4xNywwLjAxLTEuODYtMC40LTIuNTQtMS4yOSYjMTA7JiM5OyYjOTtjLTEwLjU2LTEzLjgyLTMxLjkxLTEyLjMyLTQwLjQ3LDIuODNjLTIuNCw0LjI1LTEuMDgsOS4xLDMuMTYsMTEuNTZDMzkuNjIsMTY4LjksMzkuOTIsMTY5LjA4LDQwLjM3LDE2OS4zNHoiIGNsYXNzPSJzdDIiLz4mI3hhOzwvZz4mI3hhOzwvc3ZnPg==;" vertex="1" parent="87GCZqK9oe9EleAZIWvs-24">
          <mxGeometry width="60" height="60" as="geometry" />
        </mxCell>
        <mxCell id="87GCZqK9oe9EleAZIWvs-18" value="Técnico" style="rounded=0;whiteSpace=wrap;html=1;fillColor=none;strokeColor=none;" vertex="1" parent="87GCZqK9oe9EleAZIWvs-24">
          <mxGeometry y="59.995789473684226" width="60" height="23.684210526315788" as="geometry" />
        </mxCell>
        <mxCell id="87GCZqK9oe9EleAZIWvs-26" value="" style="group;fillColor=default;" vertex="1" connectable="0" parent="1">
          <mxGeometry x="420" y="440" width="60" height="86.68" as="geometry" />
        </mxCell>
        <mxCell id="87GCZqK9oe9EleAZIWvs-21" value="" style="shape=image;verticalLabelPosition=bottom;labelBackgroundColor=default;verticalAlign=top;aspect=fixed;imageAspect=0;image=data:image/svg+xml,PHN2ZyB4bWxuczp4bGluaz0iaHR0cDovL3d3dy53My5vcmcvMTk5OS94bGluayIgeG1sbnM9Imh0dHA6Ly93d3cudzMub3JnLzIwMDAvc3ZnIiB4bWw6c3BhY2U9InByZXNlcnZlIiBzdHlsZT0iZW5hYmxlLWJhY2tncm91bmQ6bmV3IDAgMCAxODYuNCAxODYuNDsiIHZpZXdCb3g9IjAgMCAxODYuNCAxODYuNCIgeT0iMHB4IiB4PSIwcHgiIGlkPSJDYXBhXzEiIHZlcnNpb249IjEuMSI+JiN4YTs8c3R5bGUgdHlwZT0idGV4dC9jc3MiPiYjeGE7CS5zdDB7ZmlsbDp1cmwoI1NWR0lEXzFfKTt9JiN4YTsJLnN0MXtmaWxsOnVybCgjU1ZHSURfMl8pO30mI3hhOwkuc3Qye2ZpbGw6dXJsKCNTVkdJRF8zXyk7fSYjeGE7CS5zdDN7ZmlsbDp1cmwoI1NWR0lEXzRfKTt9JiN4YTsJLnN0NHtmaWxsOnVybCgjU1ZHSURfNV8pO30mI3hhOzwvc3R5bGU+JiN4YTs8Zz4mI3hhOwk8bGluZWFyR3JhZGllbnQgeTI9IjEwOS43MTgiIHgyPSI5My41NzU3IiB5MT0iLTAuMTg2IiB4MT0iOTMuNTc1NyIgZ3JhZGllbnRVbml0cz0idXNlclNwYWNlT25Vc2UiIGlkPSJTVkdJRF8xXyI+JiN4YTsJCTxzdG9wIHN0eWxlPSJzdG9wLWNvbG9yOiMwRUE1RTkiIG9mZnNldD0iMCIvPiYjeGE7CQk8c3RvcCBzdHlsZT0ic3RvcC1jb2xvcjojMDI4NEM3IiBvZmZzZXQ9IjEiLz4mI3hhOwk8L2xpbmVhckdyYWRpZW50PiYjeGE7CTxwYXRoIGQ9Ik0xMjYuOTMtMC4xOWMxLjE3LDAuMjcsMi4zNCwwLjUsMy41LDAuOGMxMy4wNSwzLjMzLDIxLjY5LDE1LjIzLDIwLjUxLDI4LjdjLTEuMywxNC44Mi0yLjg3LDI5LjYxLTQuMzIsNDQuNDEmIzEwOyYjOTsmIzk7Yy0xLjEyLDExLjQzLTIuMjQsMjIuODYtMy4zNywzNC4zYy0wLjA1LDAuNTMtMC4xMiwxLjA2LTAuMTksMS43Yy01LjYsMC0xMS4xMiwwLTE2LjgzLDBjLTAuMjctOC4zNC0yLjc5LTE1Ljg2LTguNDktMjIuMTImIzEwOyYjOTsmIzk7Yy01LjY4LTYuMjQtMTIuNzgtOS43Mi0yMS4xNi0xMC44NGM2LjEyLTEuMTgsMTEuMDgtNC4xLDE0LjY2LTkuMTNjMy42Mi01LjA4LDQuOC0xMC43NiwzLjY1LTE2Ljg4JiMxMDsmIzk7JiM5O2MtMi4wNi0xMC45OC0xMi44MS0xOC42OC0yMi43Ny0xNy43NGMtOS41NSwwLjktMTkuMzcsNy45NC0yMC4yNCwyMC42MmMtMC43OCwxMS4zOSw3LjA1LDIwLjkyLDE4LjkzLDIzLjAyJiMxMDsmIzk7JiM5O2MtMTguNTksMy40My0yOC41MSwxNC4zOC0zMC4wNywzMy4wNmMtNS40MywwLTEwLjk1LDAtMTYuNjgsMGMtMC4yOC0yLjU4LTAuNTgtNS4yLTAuODQtNy44M2MtMS44MS0xOC4yOS0zLjYzLTM2LjU4LTUuNDMtNTQuODcmIzEwOyYjOTsmIzk7Yy0wLjU4LTUuOS0xLjE4LTExLjc5LTEuNjQtMTcuN2MtMS4xMy0xNC40Nyw4LjcyLTI2LjksMjMuMDItMjkuMTZjMC4zNS0wLjA1LDAuNjctMC4yMiwxLjAxLTAuMzMmIzEwOyYjOTsmIzk7QzgyLjQ2LTAuMTksMTA0LjctMC4xOSwxMjYuOTMtMC4xOXoiIGNsYXNzPSJzdDAiLz4mI3hhOwk8bGluZWFyR3JhZGllbnQgeTI9IjE4Ni44MTM5IiB4Mj0iOTMuNTc2NiIgeTE9IjE1My41IiB4MT0iOTMuNTc2NiIgZ3JhZGllbnRVbml0cz0idXNlclNwYWNlT25Vc2UiIGlkPSJTVkdJRF8yXyI+JiN4YTsJCTxzdG9wIHN0eWxlPSJzdG9wLWNvbG9yOiMwRUE1RTkiIG9mZnNldD0iMCIvPiYjeGE7CQk8c3RvcCBzdHlsZT0ic3RvcC1jb2xvcjojMDI4NEM3IiBvZmZzZXQ9IjEiLz4mI3hhOwk8L2xpbmVhckdyYWRpZW50PiYjeGE7CTxwYXRoIGQ9Ik0xNS45OSwxODYuODFjLTMuMTQtMS40NS00LjExLTMuOTQtNC4wNC03LjMyYzAuMTYtNy45OCwwLjA1LTE1Ljk3LDAuMDUtMjMuOTZjMC0wLjY1LDAtMS4zLDAtMi4wNCYjMTA7JiM5OyYjOTtjNTQuNCwwLDEwOC42MywwLDE2My4xNiwwYzAsMC41OSwwLDEuMjIsMCwxLjg2YzAsOC4wNS0wLjExLDE2LjEsMC4wNSwyNC4xNGMwLjA3LDMuMzgtMC45LDUuODctNC4wNCw3LjMyJiMxMDsmIzk7JiM5O0MxMTkuNDQsMTg2LjgxLDY3LjcxLDE4Ni44MSwxNS45OSwxODYuODF6IiBjbGFzcz0ic3QxIi8+JiN4YTsJPGxpbmVhckdyYWRpZW50IHkyPSIxNDIuNTYzMSIgeDI9IjkzLjU3MyIgeTE9IjEyMC42OCIgeDE9IjkzLjU3MyIgZ3JhZGllbnRVbml0cz0idXNlclNwYWNlT25Vc2UiIGlkPSJTVkdJRF8zXyI+JiN4YTsJCTxzdG9wIHN0eWxlPSJzdG9wLWNvbG9yOiMwRUE1RTkiIG9mZnNldD0iMCIvPiYjeGE7CQk8c3RvcCBzdHlsZT0ic3RvcC1jb2xvcjojMDI4NEM3IiBvZmZzZXQ9IjEiLz4mI3hhOwk8L2xpbmVhckdyYWRpZW50PiYjeGE7CTxwYXRoIGQ9Ik0xODYuNCwxMzguNTJjLTEuNDUsMy4xNC0zLjk0LDQuMDUtNy4zMSw0LjA0QzEyMiwxNDIuNSw2NC45MSwxNDIuNTIsNy44MywxNDIuNTEmIzEwOyYjOTsmIzk7Yy01LjI0LDAtNy4wNy0xLjgzLTcuMDctNy4wOGMwLTIuOS0wLjAyLTUuODEsMC4wMS04LjcxYzAuMDMtMy43OCwyLjItNS45OCw1Ljk4LTUuOTljOS43OS0wLjAyLDE5LjU3LTAuMDEsMjkuMzYtMC4wMSYjMTA7JiM5OyYjOTtjNDcuNjYsMCw5NS4zMywwLjAyLDE0Mi45OS0wLjA1YzMuMzctMC4wMSw1Ljg2LDAuOSw3LjMxLDQuMDRDMTg2LjQsMTI5LjMyLDE4Ni40LDEzMy45MiwxODYuNCwxMzguNTJ6IiBjbGFzcz0ic3QyIi8+JiN4YTsJPGxpbmVhckdyYWRpZW50IHkyPSIxMDkuNzcxNCIgeDI9IjkzLjUyOTgiIHkxPSI4Ny41ODUxIiB4MT0iOTMuNTI5OCIgZ3JhZGllbnRVbml0cz0idXNlclNwYWNlT25Vc2UiIGlkPSJTVkdJRF80XyI+JiN4YTsJCTxzdG9wIHN0eWxlPSJzdG9wLWNvbG9yOiMwRUE1RTkiIG9mZnNldD0iMCIvPiYjeGE7CQk8c3RvcCBzdHlsZT0ic3RvcC1jb2xvcjojMDI4NEM3IiBvZmZzZXQ9IjEiLz4mI3hhOwk8L2xpbmVhckdyYWRpZW50PiYjeGE7CTxwYXRoIGQ9Ik0xMTUuMjMsMTA5Ljc3Yy0xNC40OSwwLTI4LjgzLDAtNDMuNCwwYzAuMy03LjU3LDMuMDMtMTMuODEsOS4zLTE4LjFjNy4zMi01LDE1LjExLTUuNDIsMjIuOTItMS4yNCYjMTA7JiM5OyYjOTtDMTExLjMyLDk0LjMyLDExNS4yMywxMDEuNjEsMTE1LjIzLDEwOS43N3oiIGNsYXNzPSJzdDMiLz4mI3hhOwk8bGluZWFyR3JhZGllbnQgeTI9IjY1Ljg4NTciIHgyPSI5My41NzY2IiB5MT0iNDQuMTI2NyIgeDE9IjkzLjU3NjYiIGdyYWRpZW50VW5pdHM9InVzZXJTcGFjZU9uVXNlIiBpZD0iU1ZHSURfNV8iPiYjeGE7CQk8c3RvcCBzdHlsZT0ic3RvcC1jb2xvcjojMEVBNUU5IiBvZmZzZXQ9IjAiLz4mI3hhOwkJPHN0b3Agc3R5bGU9InN0b3AtY29sb3I6IzAyODRDNyIgb2Zmc2V0PSIxIi8+JiN4YTsJPC9saW5lYXJHcmFkaWVudD4mI3hhOwk8cGF0aCBkPSJNMTA0LjQ0LDU1LjA4Yy0wLjA1LDUuOTQtNS4wMywxMC44Ni0xMC45NCwxMC44Yy01LjkzLTAuMDUtMTAuODQtNS4wNC0xMC43OS0xMC45NiYjMTA7JiM5OyYjOTtjMC4wNS01Ljk0LDUuMDMtMTAuODYsMTAuOTQtMTAuOEM5OS41OCw0NC4xOCwxMDQuNDksNDkuMTcsMTA0LjQ0LDU1LjA4eiIgY2xhc3M9InN0NCIvPiYjeGE7PC9nPiYjeGE7PC9zdmc+;" vertex="1" parent="87GCZqK9oe9EleAZIWvs-26">
          <mxGeometry width="60" height="60" as="geometry" />
        </mxCell>
        <mxCell id="87GCZqK9oe9EleAZIWvs-25" value="Jefe Operaciones" style="rounded=0;whiteSpace=wrap;html=1;fillColor=none;strokeColor=none;" vertex="1" parent="87GCZqK9oe9EleAZIWvs-26">
          <mxGeometry y="62.995789473684226" width="60" height="23.684210526315788" as="geometry" />
        </mxCell>
        <mxCell id="87GCZqK9oe9EleAZIWvs-32" value="" style="group" vertex="1" connectable="0" parent="1">
          <mxGeometry x="420" y="640" width="60" height="83.68000000000006" as="geometry" />
        </mxCell>
        <mxCell id="87GCZqK9oe9EleAZIWvs-30" value="" style="shape=image;verticalLabelPosition=bottom;labelBackgroundColor=default;verticalAlign=top;aspect=fixed;imageAspect=0;image=data:image/svg+xml,PHN2ZyB4bWxuczp4bGluaz0iaHR0cDovL3d3dy53My5vcmcvMTk5OS94bGluayIgeG1sbnM9Imh0dHA6Ly93d3cudzMub3JnLzIwMDAvc3ZnIiB4bWw6c3BhY2U9InByZXNlcnZlIiBzdHlsZT0iZW5hYmxlLWJhY2tncm91bmQ6bmV3IDAgMCAxODYuNCAxODYuNDsiIHZpZXdCb3g9IjAgMCAxODYuNCAxODYuNCIgeT0iMHB4IiB4PSIwcHgiIGlkPSJDYXBhXzEiIHZlcnNpb249IjEuMSI+JiN4YTs8c3R5bGUgdHlwZT0idGV4dC9jc3MiPiYjeGE7CS5zdDB7ZmlsbDp1cmwoI1NWR0lEXzFfKTt9JiN4YTsJLnN0MXtmaWxsOnVybCgjU1ZHSURfMl8pO30mI3hhOwkuc3Qye2ZpbGw6dXJsKCNTVkdJRF8zXyk7fSYjeGE7PC9zdHlsZT4mI3hhOzxnPiYjeGE7CTxsaW5lYXJHcmFkaWVudCB5Mj0iNzcuNTUwMyIgeDI9IjEzOS41OTY5IiB5MT0iLTAuMTg2IiB4MT0iMTM5LjU5NjkiIGdyYWRpZW50VW5pdHM9InVzZXJTcGFjZU9uVXNlIiBpZD0iU1ZHSURfMV8iPiYjeGE7CQk8c3RvcCBzdHlsZT0ic3RvcC1jb2xvcjojMEVBNUU5IiBvZmZzZXQ9IjAiLz4mI3hhOwkJPHN0b3Agc3R5bGU9InN0b3AtY29sb3I6IzAyODRDNyIgb2Zmc2V0PSIxIi8+JiN4YTsJPC9saW5lYXJHcmFkaWVudD4mI3hhOwk8cGF0aCBkPSJNMTQzLjM4LTAuMTljMi45MywwLjcsNS45NCwxLjE4LDguNzksMi4xM2MxNy4xMiw1LjczLDI3Ljk4LDIyLjczLDI2LjE1LDQwLjcxJiMxMDsmIzk7JiM5O2MtMS44MiwxNy43Ny0xNS41OSwzMi4wNC0zMy4yOSwzNC41MWMtMjEuMDUsMi45NC00MC4zMS0xMS4zMS00My44NC0zMi40MmMtMy40My0yMC41OCwxMC43LTQwLjUyLDMxLjM4LTQ0LjI3JiMxMDsmIzk7JiM5O2MxLjA2LTAuMTksMi4xMS0wLjQ0LDMuMTYtMC42N0MxMzguMjgtMC4xOSwxNDAuODMtMC4xOSwxNDMuMzgtMC4xOXoiIGNsYXNzPSJzdDAiLz4mI3hhOwk8bGluZWFyR3JhZGllbnQgeTI9IjE1NS4zODI5IiB4Mj0iODUuMTU3OCIgeTE9IjE1LjQwMjUiIHgxPSI4NS4xNTc4IiBncmFkaWVudFVuaXRzPSJ1c2VyU3BhY2VPblVzZSIgaWQ9IlNWR0lEXzJfIj4mI3hhOwkJPHN0b3Agc3R5bGU9InN0b3AtY29sb3I6IzBFQTVFOSIgb2Zmc2V0PSIwIi8+JiN4YTsJCTxzdG9wIHN0eWxlPSJzdG9wLWNvbG9yOiMwMjg0QzciIG9mZnNldD0iMSIvPiYjeGE7CTwvbGluZWFyR3JhZGllbnQ+JiN4YTsJPHBhdGggZD0iTTkwLjIyLDE1LjY5Yy03LjYzLDE4LjExLTYuOTgsMzUuNywzLjYzLDUyLjI2YzEwLjU3LDE2LjQ5LDI2LjE5LDI0LjUyLDQ1LjU0LDI1LjI5JiMxMDsmIzk7JiM5O2MwLjY2LDMuODMsMS4wOSw3LjY5LDIuMDIsMTEuNDNjMi41OCwxMC4yOSw3LjksMTguOTksMTUuOTQsMjUuOTVjNC41MiwzLjkxLDYuNjIsOC42NCw1LjEsMTQuNThjLTEuNSw1Ljg3LTYuODUsOS43OC0xMy42MiwxMC4xNSYjMTA7JiM5OyYjOTtjLTAuNTUsMC4wMy0xLjA5LDAuMDItMS42NCwwLjAyYy00MS4zNywwLTgyLjczLDAtMTI0LjEsMC4wMWMtMy41NCwwLTYuODgtMC42NS05Ljg1LTIuNjhjLTcuMjYtNC45NS03Ljk1LTE1LjEzLTEuMjYtMjEuMDgmIzEwOyYjOTsmIzk7YzYuMzItNS42MiwxMS4zOC0xMi4xLDE0LjY2LTE5LjkxYzIuNTctNi4xMSwzLjk4LTEyLjQ5LDQuMDUtMTkuMTFjMC4wOC03LjQ3LDAuMDEtMTQuOTQsMC4wNC0yMi40MSYjMTA7JiM5OyYjOTtjMC4wOS0yNS4yMSwxNi4xNS00Ni4yNSw0MC40My01Mi45OGM1LjkxLTEuNjQsMTEuOTUtMi4wNSwxOC4wNS0xLjY4Qzg5LjUxLDE1LjU1LDg5Ljc5LDE1LjYyLDkwLjIyLDE1LjY5eiIgY2xhc3M9InN0MSIvPiYjeGE7CTxsaW5lYXJHcmFkaWVudCB5Mj0iMTg2LjQ4ODEiIHgyPSI4NS4wODY4IiB5MT0iMTYzLjE3MjEiIHgxPSI4NS4wODY4IiBncmFkaWVudFVuaXRzPSJ1c2VyU3BhY2VPblVzZSIgaWQ9IlNWR0lEXzNfIj4mI3hhOwkJPHN0b3Agc3R5bGU9InN0b3AtY29sb3I6IzBFQTVFOSIgb2Zmc2V0PSIwIi8+JiN4YTsJCTxzdG9wIHN0eWxlPSJzdG9wLWNvbG9yOiMwMjg0QzciIG9mZnNldD0iMSIvPiYjeGE7CTwvbGluZWFyR3JhZGllbnQ+JiN4YTsJPHBhdGggZD0iTTU2LjcyLDE2My4xN2MxOC45OSwwLDM3Ljg2LDAsNTYuNzMsMGMwLjExLDEwLjMyLTEyLjk0LDIxLjk5LTI1LjksMjMuMiYjMTA7JiM5OyYjOTtDNzMuMjYsMTg3LjcxLDU5LjE4LDE3Ny4xOSw1Ni43MiwxNjMuMTd6IiBjbGFzcz0ic3QyIi8+JiN4YTs8L2c+JiN4YTs8L3N2Zz4=;" vertex="1" parent="87GCZqK9oe9EleAZIWvs-32">
          <mxGeometry width="60" height="60" as="geometry" />
        </mxCell>
        <mxCell id="87GCZqK9oe9EleAZIWvs-31" value="Notificación" style="rounded=0;whiteSpace=wrap;html=1;fillColor=none;strokeColor=none;" vertex="1" parent="87GCZqK9oe9EleAZIWvs-32">
          <mxGeometry y="59.995789473684226" width="60" height="23.684210526315788" as="geometry" />
        </mxCell>
        <mxCell id="87GCZqK9oe9EleAZIWvs-35" value="" style="group" vertex="1" connectable="0" parent="1">
          <mxGeometry x="60" y="440" width="60" height="83.68" as="geometry" />
        </mxCell>
        <mxCell id="87GCZqK9oe9EleAZIWvs-33" value="" style="shape=image;verticalLabelPosition=bottom;labelBackgroundColor=default;verticalAlign=top;aspect=fixed;imageAspect=0;image=data:image/svg+xml,PHN2ZyB4bWxuczp4bGluaz0iaHR0cDovL3d3dy53My5vcmcvMTk5OS94bGluayIgeG1sbnM9Imh0dHA6Ly93d3cudzMub3JnLzIwMDAvc3ZnIiB4bWw6c3BhY2U9InByZXNlcnZlIiBzdHlsZT0iZW5hYmxlLWJhY2tncm91bmQ6bmV3IDAgMCAxODYuNCAxODYuNDsiIHZpZXdCb3g9IjAgMCAxODYuNCAxODYuNCIgeT0iMHB4IiB4PSIwcHgiIGlkPSJDYXBhXzEiIHZlcnNpb249IjEuMSI+JiN4YTs8c3R5bGUgdHlwZT0idGV4dC9jc3MiPiYjeGE7CS5zdDB7ZmlsbDp1cmwoI1NWR0lEXzFfKTt9JiN4YTs8L3N0eWxlPiYjeGE7PGxpbmVhckdyYWRpZW50IHkyPSIxODYuMzk1NCIgeDI9IjkzLjE5NzciIHkxPSIwIiB4MT0iOTMuMTk3NyIgZ3JhZGllbnRVbml0cz0idXNlclNwYWNlT25Vc2UiIGlkPSJTVkdJRF8xXyI+JiN4YTsJPHN0b3Agc3R5bGU9InN0b3AtY29sb3I6IzBFQTVFOSIgb2Zmc2V0PSIwIi8+JiN4YTsJPHN0b3Agc3R5bGU9InN0b3AtY29sb3I6IzAyODRDNyIgb2Zmc2V0PSIxIi8+JiN4YTs8L2xpbmVhckdyYWRpZW50PiYjeGE7PHBhdGggZD0iTTkzLjIsMEM0Mi42OCwwLDAsNDIuNjgsMCw5My4yczQyLjY4LDkzLjIsOTMuMiw5My4yczkzLjItNDIuNjgsOTMuMi05My4yUzE0My43MiwwLDkzLjIsMHogTTkzLjIsNDYuNiYjMTA7JiM5O2MxNi4xLDAsMjcuOTYsMTEuODUsMjcuOTYsMjcuOTZzLTExLjg2LDI3Ljk2LTI3Ljk2LDI3Ljk2Yy0xNi4wOSwwLTI3Ljk2LTExLjg1LTI3Ljk2LTI3Ljk2Uzc3LjExLDQ2LjYsOTMuMiw0Ni42eiBNNDUuNjEsMTM3LjY3JiMxMDsmIzk7YzguMzYtMTIuMywyMi4zLTIwLjUsMzguMjctMjAuNWgxOC42NGMxNS45NywwLDI5LjkxLDguMiwzOC4yNywyMC41Yy0xMS45MSwxMi43NS0yOC44MSwyMC43Ni00Ny41OSwyMC43NiYjMTA7JiM5O1M1Ny41MiwxNTAuNDIsNDUuNjEsMTM3LjY3eiIgY2xhc3M9InN0MCIvPiYjeGE7PC9zdmc+;" vertex="1" parent="87GCZqK9oe9EleAZIWvs-35">
          <mxGeometry width="60" height="60" as="geometry" />
        </mxCell>
        <mxCell id="87GCZqK9oe9EleAZIWvs-34" value="Cliente" style="rounded=0;whiteSpace=wrap;html=1;fillColor=none;strokeColor=none;" vertex="1" parent="87GCZqK9oe9EleAZIWvs-35">
          <mxGeometry y="59.995789473684226" width="60" height="23.684210526315788" as="geometry" />
        </mxCell>
        <mxCell id="87GCZqK9oe9EleAZIWvs-39" value="" style="group" vertex="1" connectable="0" parent="1">
          <mxGeometry x="243" y="641" width="60" height="85.68000000000006" as="geometry" />
        </mxCell>
        <mxCell id="87GCZqK9oe9EleAZIWvs-37" value="" style="shape=image;verticalLabelPosition=bottom;labelBackgroundColor=default;verticalAlign=top;aspect=fixed;imageAspect=0;image=data:image/svg+xml,PHN2ZyB4bWxuczp4bGluaz0iaHR0cDovL3d3dy53My5vcmcvMTk5OS94bGluayIgeG1sbnM9Imh0dHA6Ly93d3cudzMub3JnLzIwMDAvc3ZnIiB4bWw6c3BhY2U9InByZXNlcnZlIiBzdHlsZT0iZW5hYmxlLWJhY2tncm91bmQ6bmV3IDAgMCAxODYuNCAxODYuNDsiIHZpZXdCb3g9IjAgMCAxODYuNCAxODYuNCIgeT0iMHB4IiB4PSIwcHgiIGlkPSJDYXBhXzEiIHZlcnNpb249IjEuMSI+JiN4YTs8c3R5bGUgdHlwZT0idGV4dC9jc3MiPiYjeGE7CS5zdDB7ZmlsbDp1cmwoI1NWR0lEXzFfKTt9JiN4YTsJLnN0MXtmaWxsOnVybCgjU1ZHSURfMl8pO30mI3hhOzwvc3R5bGU+JiN4YTs8Zz4mI3hhOwk8bGluZWFyR3JhZGllbnQgeTI9IjQ2LjIyNjMiIHgyPSI5My41NzY2IiB5MT0iLTAuMTg2IiB4MT0iOTMuNTc2NiIgZ3JhZGllbnRVbml0cz0idXNlclNwYWNlT25Vc2UiIGlkPSJTVkdJRF8xXyI+JiN4YTsJCTxzdG9wIHN0eWxlPSJzdG9wLWNvbG9yOiMwRUE1RTkiIG9mZnNldD0iMCIvPiYjeGE7CQk8c3RvcCBzdHlsZT0ic3RvcC1jb2xvcjojMDI4NEM3IiBvZmZzZXQ9IjEiLz4mI3hhOwk8L2xpbmVhckdyYWRpZW50PiYjeGE7CTxwYXRoIGQ9Ik05NS43NS0wLjE5YzIuNzUsMS4xNyw1LjY2LDIuMDYsOC4yLDMuNThjMi45NSwxLjc4LDQuNzYsNC43Myw2LjA1LDguMDJjMy45NiwwLDcuODgtMC4wMSwxMS44LDAmIzEwOyYjOTsmIzk7YzQuMzEsMC4wMSw2LjU4LDIuMjksNi41OSw2LjZjMC4wMSw3LjE4LDAuMDEsMTQuMzcsMCwyMS41NWMtMC4wMSw0LjM0LTIuMjYsNi42NC02LjU0LDYuNjRjLTE4Ljg0LDAuMDEtMzcuNjgsMC4wMS01Ni41MSwwJiMxMDsmIzk7JiM5O2MtNC4yOSwwLTYuNTQtMi4zLTYuNTUtNi42NGMtMC4wMS03LjE4LTAuMDEtMTQuMzcsMC0yMS41NWMwLjAxLTQuMzIsMi4yOC02LjU5LDYuNTgtNi42MWMzLjkyLTAuMDEsNy44NCwwLDExLjc5LDAmIzEwOyYjOTsmIzk7YzIuMDItNS4wMyw1LjQyLTguNiwxMC40Ni0xMC40OWMxLjIzLTAuNDYsMi41My0wLjc1LDMuOC0xLjExQzkyLjg1LTAuMTksOTQuMy0wLjE5LDk1Ljc1LTAuMTl6IiBjbGFzcz0ic3QwIi8+JiN4YTsJPGxpbmVhckdyYWRpZW50IHkyPSIxODUuNDU2IiB4Mj0iOTMuNTgwOCIgeTE9IjIyLjk5NDciIHgxPSI5My41ODA4IiBncmFkaWVudFVuaXRzPSJ1c2VyU3BhY2VPblVzZSIgaWQ9IlNWR0lEXzJfIj4mI3hhOwkJPHN0b3Agc3R5bGU9InN0b3AtY29sb3I6IzBFQTVFOSIgb2Zmc2V0PSIwIi8+JiN4YTsJCTxzdG9wIHN0eWxlPSJzdG9wLWNvbG9yOiMwMjg0QzciIG9mZnNldD0iMSIvPiYjeGE7CTwvbGluZWFyR3JhZGllbnQ+JiN4YTsJPHBhdGggZD0iTTEzOS45OSwyMy4wNGM0LjE2LDAsOC4wMy0wLjExLDExLjg5LDAuMDJjNi4zNiwwLjIyLDEwLjk1LDQuODUsMTEuMjksMTEuMmMwLjAzLDAuNDgsMC4wMiwwLjk3LDAuMDIsMS40NSYjMTA7JiM5OyYjOTtjMCw0NS42OC0wLjAxLDkxLjM1LDAuMDEsMTM3LjAzYzAsNS4wOC0xLjc1LDkuMTYtNi40NiwxMS40MWMtMS43MywwLjgzLTMuODMsMS4yNS01Ljc2LDEuMjVjLTM4LjMsMC4wNy03Ni42MSwwLjA3LTExNC45MSwwLjA0JiMxMDsmIzk7JiM5O2MtNy4yMiwwLTEyLjEtNC44Ni0xMi4xLTEyLjA2Yy0wLjAzLTQ2LjEtMC4wMy05Mi4yLDAtMTM4LjNjMC03LjA2LDQuOTQtMTEuOTYsMTEuOTctMTIuMDVjMy42Ny0wLjA1LDcuMzQtMC4wMSwxMS4yMi0wLjAxJiMxMDsmIzk7JiM5O2MwLDIuMzYtMC4wMiw0LjU4LDAsNi43OWMwLjA0LDQuMTEtMC4yMiw4LjI1LDAuMjMsMTIuMzFjMS4wMSw5LjIyLDcuOTEsMTUuNTgsMTcuMTUsMTUuNjVjMTkuMzMsMC4xNSwzOC42NywwLjE2LDU4LDAmIzEwOyYjOTsmIzk7YzEwLjA1LTAuMDgsMTcuMjktNy42NywxNy40Mi0xNy43NmMwLjA2LTUuMDEsMC4wMS0xMC4wMywwLjAxLTE1LjA0QzEzOS45OSwyNC4zOCwxMzkuOTksMjMuNzgsMTM5Ljk5LDIzLjA0eiBNNjQuNzYsOTAuNjEmIzEwOyYjOTsmIzk7Yy0yLjc0LTIuOC00Ljk5LTUuMTYtNy4zMS03LjQ1Yy0yLjY4LTIuNjYtNi4xMS0yLjgxLTguNTMtMC40NGMtMi40NiwyLjQxLTIuMzIsNS45MSwwLjQxLDguNjZjMy41MywzLjU2LDcuMDcsNy4xLDEwLjYzLDEwLjYzJiMxMDsmIzk7JiM5O2MzLDIuOTgsNi4yMSwzLDkuMTksMC4wM2M3LjQ0LTcuNDIsMTQuODctMTQuODUsMjIuMjktMjIuMjljMi43Mi0yLjc0LDIuODQtNi4yNSwwLjM2LTguNjZjLTIuNDMtMi4zNi01Ljg1LTIuMi04LjUzLDAuNDcmIzEwOyYjOTsmIzk7Qzc3LjUyLDc3LjI3LDcxLjgsODMsNjYuMSw4OC43M0M2NS42NCw4OS4yLDY1LjMyLDg5LjgxLDY0Ljc2LDkwLjYxeiBNNjQuNzgsMTM2LjUxYy0wLjMxLTAuMTEtMC4zOC0wLjExLTAuNDItMC4xNCYjMTA7JiM5OyYjOTtjLTIuMzYtMi4zMy00LjcyLTQuNjctNy4wOS03Yy0xLjU3LTEuNTQtMy40MS0yLjI4LTUuNi0xLjc0Yy00LjUzLDEuMS01Ljk4LDYuMzktMi42NSw5LjgzYzMuNTMsMy42NCw3LjE1LDcuMTksMTAuNzUsMTAuNzcmIzEwOyYjOTsmIzk7YzMuMjUsMy4yNCw2LjM1LDMuMjYsOS41OCwwLjA0YzUuNjQtNS42MywxMS4yNy0xMS4yNywxNi45MS0xNi45MWMxLjkyLTEuOTIsMy45MS0zLjc4LDUuNzQtNS43OWMzLjA2LTMuMzcsMS40NS04LjUtMi45My05LjU1JiMxMDsmIzk7JiM5O2MtMi4zNS0wLjU3LTQuMjIsMC4zNi01Ljg2LDIuMDFDNzcuMDcsMTI0LjIsNzAuOTIsMTMwLjM1LDY0Ljc4LDEzNi41MXogTTEyMi43Niw4MS4wM2MtMy43NCwwLTcuNDktMC4wMi0xMS4yMywwLjAxJiMxMDsmIzk7JiM5O2MtMy43MiwwLjAyLTYuMzIsMi4zOS02LjM0LDUuNzVjLTAuMDMsMy4zNiwyLjU3LDUuODMsNi4yNSw1Ljg0YzcuNDMsMC4wMywxNC44NSwwLjAzLDIyLjI4LDBjMy42OC0wLjAxLDYuMjgtMi40Nyw2LjI1LTUuODQmIzEwOyYjOTsmIzk7Yy0wLjAzLTMuMzYtMi42Mi01LjczLTYuMzQtNS43NUMxMzAuMDEsODEuMDEsMTI2LjM5LDgxLjAzLDEyMi43Niw4MS4wM3ogTTEyMi41NiwxMzkuMDRjMy43NCwwLDcuNDksMC4wMywxMS4yMy0wLjAxJiMxMDsmIzk7JiM5O2MzLjU4LTAuMDMsNi4xNC0yLjQ0LDYuMTgtNS43M2MwLjA0LTMuMzctMi41Ni01Ljg0LTYuMjMtNS44NmMtNy40My0wLjAzLTE0Ljg1LTAuMDMtMjIuMjgsMGMtMy42OSwwLjAxLTYuMjksMi40Ni02LjI3LDUuODImIzEwOyYjOTsmIzk7YzAuMDEsMy4zNiwyLjYxLDUuNzUsNi4zMiw1Ljc3QzExNS4yLDEzOS4wNiwxMTguODgsMTM5LjA0LDEyMi41NiwxMzkuMDR6IiBjbGFzcz0ic3QxIi8+JiN4YTs8L2c+JiN4YTs8L3N2Zz4=;" vertex="1" parent="87GCZqK9oe9EleAZIWvs-39">
          <mxGeometry width="60" height="60" as="geometry" />
        </mxCell>
        <mxCell id="87GCZqK9oe9EleAZIWvs-38" value="Orden Servicio" style="rounded=0;whiteSpace=wrap;html=1;fillColor=none;strokeColor=none;" vertex="1" parent="87GCZqK9oe9EleAZIWvs-39">
          <mxGeometry y="61.995789473684226" width="60" height="23.684210526315788" as="geometry" />
        </mxCell>
        <mxCell id="87GCZqK9oe9EleAZIWvs-42" value="" style="group" vertex="1" connectable="0" parent="1">
          <mxGeometry x="414" y="240" width="60" height="83.68" as="geometry" />
        </mxCell>
        <mxCell id="87GCZqK9oe9EleAZIWvs-40" value="" style="shape=image;verticalLabelPosition=bottom;labelBackgroundColor=default;verticalAlign=top;aspect=fixed;imageAspect=0;image=data:image/svg+xml,PHN2ZyB4bWxuczp4bGluaz0iaHR0cDovL3d3dy53My5vcmcvMTk5OS94bGluayIgeG1sbnM9Imh0dHA6Ly93d3cudzMub3JnLzIwMDAvc3ZnIiB4bWw6c3BhY2U9InByZXNlcnZlIiBzdHlsZT0iZW5hYmxlLWJhY2tncm91bmQ6bmV3IDAgMCAxODYuNCAxODYuNDsiIHZpZXdCb3g9IjAgMCAxODYuNCAxODYuNCIgeT0iMHB4IiB4PSIwcHgiIGlkPSJDYXBhXzEiIHZlcnNpb249IjEuMSI+JiN4YTs8c3R5bGUgdHlwZT0idGV4dC9jc3MiPiYjeGE7CS5zdDB7ZmlsbDp1cmwoI1NWR0lEXzFfKTt9JiN4YTsJLnN0MXtmaWxsOnVybCgjU1ZHSURfMl8pO30mI3hhOwkuc3Qye2ZpbGw6dXJsKCNTVkdJRF8zXyk7fSYjeGE7CS5zdDN7ZmlsbDp1cmwoI1NWR0lEXzRfKTt9JiN4YTsJLnN0NHtmaWxsOnVybCgjU1ZHSURfNV8pO30mI3hhOwkuc3Q1e2ZpbGw6dXJsKCNTVkdJRF82Xyk7fSYjeGE7CS5zdDZ7ZmlsbDp1cmwoI1NWR0lEXzdfKTt9JiN4YTsJLnN0N3tmaWxsOnVybCgjU1ZHSURfOF8pO30mI3hhOwkuc3Q4e2ZpbGw6dXJsKCNTVkdJRF85Xyk7fSYjeGE7CS5zdDl7ZmlsbDp1cmwoI1NWR0lEXzEwXyk7fSYjeGE7CS5zdDEwe2ZpbGw6dXJsKCNTVkdJRF8xMV8pO30mI3hhOwkuc3QxMXtmaWxsOnVybCgjU1ZHSURfMTJfKTt9JiN4YTsJLnN0MTJ7ZmlsbDp1cmwoI1NWR0lEXzEzXyk7fSYjeGE7CS5zdDEze2ZpbGw6dXJsKCNTVkdJRF8xNF8pO30mI3hhOwkuc3QxNHtmaWxsOnVybCgjU1ZHSURfMTVfKTt9JiN4YTsJLnN0MTV7ZmlsbDp1cmwoI1NWR0lEXzE2Xyk7fSYjeGE7CS5zdDE2e2ZpbGw6dXJsKCNTVkdJRF8xN18pO30mI3hhOwkuc3QxN3tmaWxsOnVybCgjU1ZHSURfMThfKTt9JiN4YTsJLnN0MTh7ZmlsbDp1cmwoI1NWR0lEXzE5Xyk7fSYjeGE7CS5zdDE5e2ZpbGw6dXJsKCNTVkdJRF8yMF8pO30mI3hhOwkuc3QyMHtmaWxsOnVybCgjU1ZHSURfMjFfKTt9JiN4YTsJLnN0MjF7ZmlsbDp1cmwoI1NWR0lEXzIyXyk7fSYjeGE7CS5zdDIye2ZpbGw6dXJsKCNTVkdJRF8yM18pO30mI3hhOwkuc3QyM3tmaWxsOnVybCgjU1ZHSURfMjRfKTt9JiN4YTsJLnN0MjR7ZmlsbDp1cmwoI1NWR0lEXzI1Xyk7fSYjeGE7CS5zdDI1e2ZpbGw6dXJsKCNTVkdJRF8yNl8pO30mI3hhOwkuc3QyNntmaWxsOnVybCgjU1ZHSURfMjdfKTt9JiN4YTsJLnN0Mjd7ZmlsbDp1cmwoI1NWR0lEXzI4Xyk7fSYjeGE7CS5zdDI4e2ZpbGw6dXJsKCNTVkdJRF8yOV8pO30mI3hhOwkuc3QyOXtmaWxsOnVybCgjU1ZHSURfMzBfKTt9JiN4YTsJLnN0MzB7ZmlsbDp1cmwoI1NWR0lEXzMxXyk7fSYjeGE7CS5zdDMxe2ZpbGw6dXJsKCNTVkdJRF8zMl8pO30mI3hhOwkuc3QzMntmaWxsOnVybCgjU1ZHSURfMzNfKTt9JiN4YTsJLnN0MzN7ZmlsbDp1cmwoI1NWR0lEXzM0Xyk7fSYjeGE7CS5zdDM0e2ZpbGw6dXJsKCNTVkdJRF8zNV8pO30mI3hhOwkuc3QzNXtmaWxsOnVybCgjU1ZHSURfMzZfKTt9JiN4YTs8L3N0eWxlPiYjeGE7PGc+JiN4YTsJPGxpbmVhckdyYWRpZW50IHkyPSIxODIuODc3MyIgeDI9IjE0NC43OTE4IiB5MT0iMTI3LjgyODYiIHgxPSIxNDQuNzkxOCIgZ3JhZGllbnRVbml0cz0idXNlclNwYWNlT25Vc2UiIGlkPSJTVkdJRF8xXyI+JiN4YTsJCTxzdG9wIHN0eWxlPSJzdG9wLWNvbG9yOiMwRUE1RTkiIG9mZnNldD0iMCIvPiYjeGE7CQk8c3RvcCBzdHlsZT0ic3RvcC1jb2xvcjojMDI4NEM3IiBvZmZzZXQ9IjEiLz4mI3hhOwk8L2xpbmVhckdyYWRpZW50PiYjeGE7CTxwYXRoIGQ9Ik0xODYuNCwxMzAuMzRjLTUuNTksOS45LTEyLjM2LDE4Ljg5LTIwLjcyLDI2LjY0Yy0xMy45OSwxMi45Ny0zMC4zMSwyMS41NS00OC44OSwyNS44NyYjMTA7JiM5OyYjOTtjLTAuMTcsMC4wNC0wLjM2LDAuMDItMC42NSwwLjAzYy0wLjA4LTAuNTktMC4xNC0xLjE3LTAuMjMtMS43NWMtMC43NC00LjgyLTQuMTUtOC4wMy05LTguNDFjLTEuNTUtMC4xMi0yLjg3LTAuNTctMy40OC0yLjEyJiMxMDsmIzk7JiM5O2MtMC44NS0yLjE2LDAuNjYtNC4yOSwzLjEzLTQuMzNjMy45OS0wLjA2LDcuOTgsMCwxMS45Ni0wLjAyYzUuOTUtMC4wMyw5LjcyLTMuNTEsMTAuMjQtOS40NmMwLjItMi4yMiwxLjM1LTMuMjksMy43LTMuMyYjMTA7JiM5OyYjOTtjNi4xNi0wLjAyLDEyLjMzLDAuMDcsMTguNDktMC4wM2M2LjktMC4xMSwxMS40Ny02LjQ0LDkuMy0xMi43NGMtMS4zNS0zLjkzLTQuODctNi40Mi05LjMzLTYuNDRjLTkuNzktMC4wNC0xOS41OC0wLjAxLTI5LjM3LTAuMDEmIzEwOyYjOTsmIzk7Yy01LjEsMC01Ljk0LTAuOTUtNS40Mi02LjQzYzAuNjEsMCwxLjI1LDAsMS44OSwwYzIxLjc1LDAsNDMuNTEtMC4wMSw2NS4yNiwwLjA0YzEuMDMsMCwyLjA3LDAuNjYsMy4xLDEuMDEmIzEwOyYjOTsmIzk7QzE4Ni40LDEyOS4zNywxODYuNCwxMjkuODYsMTg2LjQsMTMwLjM0eiIgY2xhc3M9InN0MCIvPiYjeGE7CTxsaW5lYXJHcmFkaWVudCB5Mj0iNTguNjU0OSIgeDI9IjE2My45NDU2IiB5MT0iLTAuMTg2IiB4MT0iMTYzLjk0NTYiIGdyYWRpZW50VW5pdHM9InVzZXJTcGFjZU9uVXNlIiBpZD0iU1ZHSURfMl8iPiYjeGE7CQk8c3RvcCBzdHlsZT0ic3RvcC1jb2xvcjojMEVBNUU5IiBvZmZzZXQ9IjAiLz4mI3hhOwkJPHN0b3Agc3R5bGU9InN0b3AtY29sb3I6IzAyODRDNyIgb2Zmc2V0PSIxIi8+JiN4YTsJPC9saW5lYXJHcmFkaWVudD4mI3hhOwk8cGF0aCBkPSJNMTg2LjQsMjUuNTZjLTEuMDEsNi40OC00Ljg0LDExLjQtOC44NiwxNi4yNmMtNC41NCw1LjQ4LTguOTIsMTEuMS0xMy41MSwxNi44NCYjMTA7JiM5OyYjOTtjLTAuNDctMC41Ni0wLjg5LTEuMDMtMS4yOS0xLjUyYy01LjMyLTYuNjQtMTAuNjUtMTMuMjctMTUuOTQtMTkuOTNjLTExLjEtMTMuOTctMy44OS0zMy42MSwxMy42LTM3LjA5JiMxMDsmIzk7JiM5O2MwLjIyLTAuMDQsMC40Mi0wLjIsMC42My0wLjNjMS45MywwLDMuODcsMCw1LjgsMGMwLjI3LDAuMTEsMC41NCwwLjI3LDAuODIsMC4zMWM2LjA2LDEuMDQsMTAuODUsNC4xMSwxNC41Miw5LjAyJiMxMDsmIzk7JiM5O2MyLjI5LDMuMDYsMy4zOCw2LjYsNC4yNCwxMC4yNEMxODYuNCwyMS40NSwxODYuNCwyMy41LDE4Ni40LDI1LjU2eiBNMTYzLjg5LDM0Ljk5YzcuMSwwLjA0LDEyLjgxLTUuNTgsMTIuODgtMTIuNjcmIzEwOyYjOTsmIzk7YzAuMDctNy4wNy01LjU4LTEyLjgyLTEyLjY4LTEyLjg4Yy03LjA2LTAuMDctMTIuODUsNS42NC0xMi44OCwxMi42OEMxNTEuMTgsMjkuMjMsMTU2LjgyLDM0Ljk1LDE2My44OSwzNC45OXoiIGNsYXNzPSJzdDEiLz4mI3hhOwk8bGluZWFyR3JhZGllbnQgeTI9IjU4Ljc5MDIiIHgyPSIyMy4yMTc4IiB5MT0iLTAuMTg2IiB4MT0iMjMuMjE3OCIgZ3JhZGllbnRVbml0cz0idXNlclNwYWNlT25Vc2UiIGlkPSJTVkdJRF8zXyI+JiN4YTsJCTxzdG9wIHN0eWxlPSJzdG9wLWNvbG9yOiMwRUE1RTkiIG9mZnNldD0iMCIvPiYjeGE7CQk8c3RvcCBzdHlsZT0ic3RvcC1jb2xvcjojMDI4NEM3IiBvZmZzZXQ9IjEiLz4mI3hhOwk8L2xpbmVhckdyYWRpZW50PiYjeGE7CTxwYXRoIGQ9Ik0yNi4xNC0wLjE5YzEuMDksMC4zLDIuMTksMC41NywzLjI3LDAuODljMTQuMDYsNC4xMSwyMC45OCwyMC45MiwxMi45NSwzMy4yOSYjMTA7JiM5OyYjOTtjLTUuNjIsOC42Ni0xMi41OSwxNi40NC0xOS4xLDI0LjhjLTEuNjctMi4wNy0zLjEzLTMuODktNC41OS01LjcxQzE0LjQxLDQ3Ljc2LDEwLjEyLDQyLjQ2LDUuOSwzNy4xJiMxMDsmIzk7JiM5O0MtNS4xNCwyMy4wNywyLjE4LDMuNDgsMTkuNjksMC4xYzAuMjItMC4wNCwwLjQzLTAuMTksMC42NC0wLjI5QzIyLjI3LTAuMTksMjQuMi0wLjE5LDI2LjE0LTAuMTl6IE0yMy4wNiwzNSYjMTA7JiM5OyYjOTtjNy4xMSwwLjAzLDEyLjg0LTUuNjEsMTIuODgtMTIuNjhjMC4wNC03LjA5LTUuNTctMTIuOC0xMi42OC0xMi44OGMtNy4wNi0wLjA4LTEyLjgsNS41Ny0xMi44OCwxMi42OCYjMTA7JiM5OyYjOTtDMTAuMywyOS4xNiwxNi4wMiwzNC45NywyMy4wNiwzNXoiIGNsYXNzPSJzdDIiLz4mI3hhOwk8bGluZWFyR3JhZGllbnQgeTI9IjU4LjcyNTUiIHgyPSI5My41OTMyIiB5MT0iLTAuMTg2IiB4MT0iOTMuNTkzMiIgZ3JhZGllbnRVbml0cz0idXNlclNwYWNlT25Vc2UiIGlkPSJTVkdJRF80XyI+JiN4YTsJCTxzdG9wIHN0eWxlPSJzdG9wLWNvbG9yOiMwRUE1RTkiIG9mZnNldD0iMCIvPiYjeGE7CQk8c3RvcCBzdHlsZT0ic3RvcC1jb2xvcjojMDI4NEM3IiBvZmZzZXQ9IjEiLz4mI3hhOwk8L2xpbmVhckdyYWRpZW50PiYjeGE7CTxwYXRoIGQ9Ik05Ni40OC0wLjE5YzMuNDQsMC44OCw2LjgyLDEuODcsOS44LDMuOTVjMTAuMiw3LjE0LDEzLjA2LDIxLjQ5LDUuNzYsMzEuNTkmIzEwOyYjOTsmIzk7Yy01Ljc1LDcuOTYtMTIuMTUsMTUuNDUtMTguNDMsMjMuMzdjLTEuNDItMS43OC0yLjcyLTMuNC00LjAyLTUuMDNjLTQuNDEtNS41MS04Ljg1LTExLTEzLjI0LTE2LjU0JiMxMDsmIzk7JiM5O0M2NS4yNywyMy4xNiw3Mi41NCwzLjUzLDkwLjA0LDAuMTFjMC4yMi0wLjA0LDAuNDItMC4xOSwwLjY0LTAuMjlDOTIuNjEtMC4xOSw5NC41NC0wLjE5LDk2LjQ4LTAuMTl6IE0xMDYuMzMsMjIuMTYmIzEwOyYjOTsmIzk7Yy0wLjAzLTcuMS01LjczLTEyLjc2LTEyLjgxLTEyLjcyYy03LjEsMC4wNC0xMi43Miw1LjcyLTEyLjcsMTIuODNjMC4wMiw3LjA5LDUuNzEsMTIuNzQsMTIuODEsMTIuNzImIzEwOyYjOTsmIzk7QzEwMC43MSwzNC45OCwxMDYuMzYsMjkuMjYsMTA2LjMzLDIyLjE2eiIgY2xhc3M9InN0MyIvPiYjeGE7CTxsaW5lYXJHcmFkaWVudCB5Mj0iMTkuMzkyOSIgeDI9IjE3Ni42MDU5IiB5MT0iLTAuMTg2IiB4MT0iMTc2LjYwNTkiIGdyYWRpZW50VW5pdHM9InVzZXJTcGFjZU9uVXNlIiBpZD0iU1ZHSURfNV8iPiYjeGE7CQk8c3RvcCBzdHlsZT0ic3RvcC1jb2xvcjojMEVBNUU5IiBvZmZzZXQ9IjAiLz4mI3hhOwkJPHN0b3Agc3R5bGU9InN0b3AtY29sb3I6IzAyODRDNyIgb2Zmc2V0PSIxIi8+JiN4YTsJPC9saW5lYXJHcmFkaWVudD4mI3hhOwk8cGF0aCBkPSJNMTg2LjQsMTkuMzljLTAuODYtMy42NC0xLjk1LTcuMTgtNC4yNC0xMC4yNGMtMy42Ny00LjkxLTguNDYtNy45OC0xNC41Mi05LjAyJiMxMDsmIzk7JiM5O2MtMC4yOC0wLjA1LTAuNTUtMC4yMS0wLjgyLTAuMzFjNi41LDAsMTIuOTksMCwxOS41OCwwQzE4Ni40LDYuMzQsMTg2LjQsMTIuODcsMTg2LjQsMTkuMzl6IiBjbGFzcz0ic3Q0Ii8+JiN4YTsJPGxpbmVhckdyYWRpZW50IHkyPSIxODUuNDM5MyIgeDI9IjkzLjU5MjIiIHkxPSIxMjcuOTg0IiB4MT0iOTMuNTkyMiIgZ3JhZGllbnRVbml0cz0idXNlclNwYWNlT25Vc2UiIGlkPSJTVkdJRF82XyI+JiN4YTsJCTxzdG9wIHN0eWxlPSJzdG9wLWNvbG9yOiMwRUE1RTkiIG9mZnNldD0iMCIvPiYjeGE7CQk8c3RvcCBzdHlsZT0ic3RvcC1jb2xvcjojMDI4NEM3IiBvZmZzZXQ9IjEiLz4mI3hhOwk8L2xpbmVhckdyYWRpZW50PiYjeGE7CTxwYXRoIGQ9Ik03Ny43NSwxODQuMWMtMC4xNy0xLjQ4LTAuMjEtMi44OC0wLjUyLTQuMjJjLTAuOS0zLjkyLTQuMzYtNi44Mi04LjM3LTcuMTVjLTAuNDItMC4wNC0wLjg1LTAuMDQtMS4yNi0wLjExJiMxMDsmIzk7JiM5O2MtMS44My0wLjM1LTIuOS0xLjY5LTIuNzYtMy40NGMwLjEzLTEuNjUsMS4zNC0yLjg0LDMuMTMtMi45YzEuOTktMC4wNywzLjk5LDAsNS45OC0wLjAzYzUuNzgtMC4wNiwxMC4wNy00LjIyLDEwLTkuNjkmIzEwOyYjOTsmIzk7Yy0wLjA3LTUuNDItNC4zMi05LjUtMTAtOS41MWMtMTIuMi0wLjAyLTI0LjQtMC4wMS0zNi42LTAuMDFjLTAuNjYsMC0xLjM1LDAuMDctMS45OS0wLjA3Yy0xLjYxLTAuMzYtMi41NC0xLjQ2LTIuNTctMy4wOCYjMTA7JiM5OyYjOTtjLTAuMDItMS41MywwLjc5LTIuNjYsMi4zMy0zLjA2YzAuNjktMC4xOCwxLjQzLTAuMiwyLjE1LTAuMmM1LjYyLTAuMDIsMTEuMjMsMCwxNi44NS0wLjAxYzYuODEtMC4wMSwxMC42LTMuODEsMTAuNjYtMTAuNjgmIzEwOyYjOTsmIzk7YzAtMC42LDAtMS4yLDAtMS45NWMxNC45MywwLDI5Ljc0LDAsNDQuNzcsMGMwLDAuODktMC4wMSwxLjc3LDAsMi42NmMwLjA3LDUuODYsNC4wNSw5LjkyLDkuOTIsOS45NSYjMTA7JiM5OyYjOTtjMTAuMDMsMC4wNSwyMC4wNSwwLjAxLDMwLjA4LDAuMDJjMC42NiwwLDEuMzQtMC4wMSwxLjk5LDAuMDljMS43MiwwLjI3LDIuODksMS42MywyLjg1LDMuMjJjLTAuMDUsMS42OC0xLjM2LDMuMDUtMy4xOCwzLjA4JiMxMDsmIzk7JiM5O2MtMy4zMiwwLjA3LTYuNjQsMC4wMi05Ljk3LDAuMDNjLTMuMDgsMC02LjE2LTAuMDQtOS4yNCwwLjAxYy01LjA3LDAuMDktOC45MiwzLjYxLTkuNTQsOC42NGMtMC40MywzLjU0LTEuMTIsNC4xNC00Ljc2LDQuMTQmIzEwOyYjOTsmIzk7Yy0zLjc0LDAtNy40OS0wLjA2LTExLjIzLDAuMDJjLTUuMDcsMC4xMS05LjEsMy42OS05LjYxLDguMzljLTAuNTMsNC45MiwyLjQ3LDkuMzIsNy4yMiwxMC41MWMwLjgxLDAuMiwxLjY4LDAuMTgsMi41MSwwLjMyJiMxMDsmIzk7JiM5O2MyLjIyLDAuMzYsMy41OSwyLjQ0LDIuOTIsNC41NWMtMC4xLDAuMzItMC42NCwwLjY0LTEuMDMsMC43MkMxMDAuNCwxODUuOSw4NS4zOCwxODUuNzgsNzcuNzUsMTg0LjF6IiBjbGFzcz0ic3Q1Ii8+JiN4YTsJPGxpbmVhckdyYWRpZW50IHkyPSIxODMuMDYzOSIgeDI9IjM5LjE4NjkiIHkxPSIxMjcuODI5NyIgeDE9IjM5LjE4NjkiIGdyYWRpZW50VW5pdHM9InVzZXJTcGFjZU9uVXNlIiBpZD0iU1ZHSURfN18iPiYjeGE7CQk8c3RvcCBzdHlsZT0ic3RvcC1jb2xvcjojMEVBNUU5IiBvZmZzZXQ9IjAiLz4mI3hhOwkJPHN0b3Agc3R5bGU9InN0b3AtY29sb3I6IzAyODRDNyIgb2Zmc2V0PSIxIi8+JiN4YTsJPC9saW5lYXJHcmFkaWVudD4mI3hhOwk8cGF0aCBkPSJNNTguMzksMTI3LjkxYzAsMC45NCwwLjAxLDEuNjYsMCwyLjM5Yy0wLjAzLDIuNzktMS4xOSwzLjk1LTQsMy45NmMtNi4yOCwwLjAyLTEyLjU3LTAuMDQtMTguODUsMC4wNSYjMTA7JiM5OyYjOTtjLTQuMDgsMC4wNi03LjUxLDIuOC04LjczLDYuNzFjLTEuMTgsMy44LDAuMTMsNy45NSwzLjI3LDEwLjM5YzIsMS41NSw0LjMsMi4wNyw2Ljc5LDIuMDdjMTEuOS0wLjAxLDIzLjgtMC4wMSwzNS43LTAuMDEmIzEwOyYjOTsmIzk7YzAuNDgsMCwwLjk3LTAuMDEsMS40NSwwYzIuMSwwLjA2LDMuNSwxLjI4LDMuNTUsMy4wOGMwLjA1LDEuODYtMS4zNywzLjItMy41NywzLjI1Yy0yLjA1LDAuMDUtNC4xMS0wLjA1LTYuMTYsMC4wNCYjMTA7JiM5OyYjOTtjLTQuNywwLjItOC4zMiwzLjIzLTkuMjksNy43MWMtMC44OSw0LjEzLDEuMiw4LjU1LDUuMTMsMTAuNDFjMS4yNywwLjYsMi43NSwwLjgxLDQuMTcsMS4wM2MyLjMyLDAuMzYsMy4yNywxLjQsMy4xNCw0LjA3JiMxMDsmIzk7JiM5O2MtMy4zNC0wLjkzLTYuNjYtMS43MS05Ljg4LTIuNzljLTI2LTguNzEtNDUuOTEtMjQuOTEtNTkuNTktNDguN2MtMS40NS0yLjUyLTAuNzQtMy43NSwyLjE0LTMuNzVjMTcuNjQsMCwzNS4yOCwwLDUyLjkyLDAmIzEwOyYjOTsmIzk7QzU3LjEyLDEyNy44Myw1Ny42NSwxMjcuODgsNTguMzksMTI3LjkxeiIgY2xhc3M9InN0NiIvPiYjeGE7CTxsaW5lYXJHcmFkaWVudCB5Mj0iMTIxLjMwODMiIHgyPSI5My41NzQxIiB5MT0iODkuNTY5MSIgeDE9IjkzLjU3NDEiIGdyYWRpZW50VW5pdHM9InVzZXJTcGFjZU9uVXNlIiBpZD0iU1ZHSURfOF8iPiYjeGE7CQk8c3RvcCBzdHlsZT0ic3RvcC1jb2xvcjojMEVBNUU5IiBvZmZzZXQ9IjAiLz4mI3hhOwkJPHN0b3Agc3R5bGU9InN0b3AtY29sb3I6IzAyODRDNyIgb2Zmc2V0PSIxIi8+JiN4YTsJPC9saW5lYXJHcmFkaWVudD4mI3hhOwk8cGF0aCBkPSJNMTE1LjksODkuNTdjMCwxMC41OCwwLDIxLjExLDAsMzEuNzRjLTE0LjkyLDAtMjkuNzQsMC00NC42NiwwYzAtMTAuNiwwLTIxLjA5LDAtMzEuNzQmIzEwOyYjOTsmIzk7Qzg2LjA5LDg5LjU3LDEwMC45NSw4OS41NywxMTUuOSw4OS41N3ogTTk2LjcsMTA4Ljc4Yy0yLjE1LDAtNC4yMSwwLTYuMTgsMGMwLDIuMTgsMCw0LjIsMCw2LjE5YzIuMTQsMCw0LjExLDAsNi4xOCwwJiMxMDsmIzk7JiM5O0M5Ni43LDExMi44NSw5Ni43LDExMC44Myw5Ni43LDEwOC43OHogTTgzLjg1LDExNC45OWMwLTIuMTQsMC00LjIsMC02LjIzYy0yLjE1LDAtNC4xNSwwLTYuMTIsMGMwLDIuMTUsMCw0LjE2LDAsNi4yMyYjMTA7JiM5OyYjOTtDNzkuODEsMTE0Ljk5LDgxLjc3LDExNC45OSw4My44NSwxMTQuOTl6IE0xMDkuNSwxMDguNzVjLTIuMTcsMC00LjE2LDAtNi4yLDBjMCwyLjE0LDAsNC4xNiwwLDYuMTljMi4xMywwLDQuMTQsMCw2LjIsMCYjMTA7JiM5OyYjOTtDMTA5LjUsMTEyLjgzLDEwOS41LDExMC44NiwxMDkuNSwxMDguNzV6IE0xMDkuNDcsOTZjLTIuMTYsMC00LjE1LDAtNi4xOSwwYzAsMi4xLDAsNC4wNSwwLDYuMTFjMi4xMSwwLDQuMTEsMCw2LjE5LDAmIzEwOyYjOTsmIzk7QzEwOS40NywxMDAuMDMsMTA5LjQ3LDk4LjA4LDEwOS40Nyw5NnogTTk2LjcxLDk2LjAxYy0yLjIyLDAtNC4yNCwwLTYuMjQsMGMwLDIuMTEsMCw0LjA3LDAsNi4wOWMyLjEzLDAsNC4xNCwwLDYuMjQsMCYjMTA7JiM5OyYjOTtDOTYuNzEsMTAwLDk2LjcxLDk4LjA0LDk2LjcxLDk2LjAxeiBNODMuODcsMTAyLjEzYzAtMi4xOSwwLTQuMTUsMC02LjE2Yy0yLjExLDAtNC4xMiwwLTYuMTUsMGMwLDIuMTIsMCw0LjEyLDAsNi4xNiYjMTA7JiM5OyYjOTtDNzkuOCwxMDIuMTMsODEuNzYsMTAyLjEzLDgzLjg3LDEwMi4xM3oiIGNsYXNzPSJzdDciLz4mI3hhOwk8bGluZWFyR3JhZGllbnQgeTI9IjEyMS4zMjQ1IiB4Mj0iMjMuMTcxOSIgeTE9IjgzLjE0NTQiIHgxPSIyMy4xNzE5IiBncmFkaWVudFVuaXRzPSJ1c2VyU3BhY2VPblVzZSIgaWQ9IlNWR0lEXzlfIj4mI3hhOwkJPHN0b3Agc3R5bGU9InN0b3AtY29sb3I6IzBFQTVFOSIgb2Zmc2V0PSIwIi8+JiN4YTsJCTxzdG9wIHN0eWxlPSJzdG9wLWNvbG9yOiMwMjg0QzciIG9mZnNldD0iMSIvPiYjeGE7CTwvbGluZWFyR3JhZGllbnQ+JiN4YTsJPHBhdGggZD0iTTI2LjM5LDEyMS4zMmMtNi40OSwwLTEyLjc0LDAtMTkuMSwwYy0wLjA0LTAuNjktMC4wOS0xLjI4LTAuMDktMS44N2MtMC4wMS0xMC45My0wLjAxLTIxLjg2LDAtMzIuNzkmIzEwOyYjOTsmIzk7YzAtMy4zMSwxLjA3LTQuMSw0LjI2LTMuMTVjOC4xNCwyLjQzLDE2LjI4LDQuODcsMjQuNDMsNy4zYzMuMjQsMC45NywzLjQ5LDEuMzQsMy4xOSw1LjA0Yy0xLjg4LDAtMy43OC0wLjAxLTUuNjksMCYjMTA7JiM5OyYjOTtjLTQuNDYsMC4wNC02Ljk0LDIuNS02Ljk3LDYuOTdjLTAuMDMsNS40My0wLjAxLDEwLjg3LTAuMDEsMTYuM0MyNi4zOSwxMTkuNzgsMjYuMzksMTIwLjQzLDI2LjM5LDEyMS4zMnogTTEzLjYzLDExNC45NiYjMTA7JiM5OyYjOTtjMi4xNCwwLDQuMTYsMCw2LjI0LDBjMC0yLjEzLDAtNC4xNCwwLTYuMjRjLTIuMTEsMC00LjEzLDAtNi4yNCwwQzEzLjYzLDExMC44LDEzLjYzLDExMi43NywxMy42MywxMTQuOTZ6IE0xMy41NCw5NS45NSYjMTA7JiM5OyYjOTtjMCwxLjgzLTAuMDQsMy41NiwwLjA0LDUuMjljMC4wMSwwLjMzLDAuNDksMC45LDAuNzcsMC45MmMxLjgzLDAuMDgsMy42NywwLjA0LDUuNTMsMC4wNGMwLTIuMjQsMC00LjIsMC02LjI1JiMxMDsmIzk7JiM5O0MxNy43Nyw5NS45NSwxNS43NSw5NS45NSwxMy41NCw5NS45NXoiIGNsYXNzPSJzdDgiLz4mI3hhOwk8bGluZWFyR3JhZGllbnQgeTI9IjEyMS4zMjM0IiB4Mj0iMTYzLjk3NTEiIHkxPSI4My4xMzQ1IiB4MT0iMTYzLjk3NTEiIGdyYWRpZW50VW5pdHM9InVzZXJTcGFjZU9uVXNlIiBpZD0iU1ZHSURfMTBfIj4mI3hhOwkJPHN0b3Agc3R5bGU9InN0b3AtY29sb3I6IzBFQTVFOSIgb2Zmc2V0PSIwIi8+JiN4YTsJCTxzdG9wIHN0eWxlPSJzdG9wLWNvbG9yOiMwMjg0QzciIG9mZnNldD0iMSIvPiYjeGE7CTwvbGluZWFyR3JhZGllbnQ+JiN4YTsJPHBhdGggZD0iTTE3OS44NiwxMjEuMzJjLTYuMzUsMC0xMi42LDAtMTkuMSwwYzAtMC43MywwLTEuMzcsMC0yLjAxYzAtNS40MywwLjAxLTEwLjg3LTAuMDEtMTYuMyYjMTA7JiM5OyYjOTtjLTAuMDItNC43LTIuNDYtNy4xMy03LjE1LTcuMTVjLTEuOC0wLjAxLTMuNiwwLTUuMzcsMGMtMC42Ni0zLjItMC4xNy00LjA3LDIuNjktNC45M2M4LjMxLTIuNDksMTYuNjMtNC45OCwyNC45NC03LjQ2JiMxMDsmIzk7JiM5O2MyLjk0LTAuODgsNC4wOC0wLjAzLDQuMDksMy4wM2MwLjAxLDExLjA1LDAsMjIuMSwwLDMzLjE1QzE3OS45NiwxMjAuMTcsMTc5LjksMTIwLjY5LDE3OS44NiwxMjEuMzJ6IE0xNjcuMjgsMTE0Ljk2JiMxMDsmIzk7JiM5O2MyLjExLDAsNC4xMywwLDYuMjMsMGMwLTIuMTMsMC00LjE0LDAtNi4yNGMtMi4xMywwLTQuMTQsMC02LjIzLDBDMTY3LjI4LDExMC44NCwxNjcuMjgsMTEyLjg2LDE2Ny4yOCwxMTQuOTZ6IE0xNzMuNTUsOTUuOTcmIzEwOyYjOTsmIzk7Yy0yLjE5LDAtNC4yMSwwLTYuMjMsMGMwLDIuMTIsMCw0LjEzLDAsNi4wOGMyLjE1LDAsNC4xNiwwLDYuMjMsMEMxNzMuNTUsOTkuOTYsMTczLjU1LDk4LjA1LDE3My41NSw5NS45N3oiIGNsYXNzPSJzdDkiLz4mI3hhOwk8bGluZWFyR3JhZGllbnQgeTI9IjEyMS4yNjc3IiB4Mj0iNDguNzcwMyIgeTE9IjEwMi4zNDQ5IiB4MT0iNDguNzcwMyIgZ3JhZGllbnRVbml0cz0idXNlclNwYWNlT25Vc2UiIGlkPSJTVkdJRF8xMV8iPiYjeGE7CQk8c3RvcCBzdHlsZT0ic3RvcC1jb2xvcjojMEVBNUU5IiBvZmZzZXQ9IjAiLz4mI3hhOwkJPHN0b3Agc3R5bGU9InN0b3AtY29sb3I6IzAyODRDNyIgb2Zmc2V0PSIxIi8+JiN4YTsJPC9saW5lYXJHcmFkaWVudD4mI3hhOwk8cGF0aCBkPSJNNjQuNzEsMTAyLjM0YzAsNi4zOCwwLDEyLjU3LDAsMTguOTJjLTEwLjY0LDAtMjEuMjEsMC0zMS44NywwYzAtNi4zMywwLTEyLjU3LDAtMTguOTImIzEwOyYjOTsmIzk7QzQzLjQ1LDEwMi4zNCw1My45OCwxMDIuMzQsNjQuNzEsMTAyLjM0eiBNNTguMjYsMTE0Ljk5YzAtMi4yMSwwLTQuMjMsMC02LjI1Yy0yLjE0LDAtNC4xNiwwLTYuMTksMGMwLDIuMTUsMCw0LjE2LDAsNi4yNSYjMTA7JiM5OyYjOTtDNTQuMTgsMTE0Ljk5LDU2LjE1LDExNC45OSw1OC4yNiwxMTQuOTl6IE0zOS4yOCwxMDguN2MwLDIuMTYsMCw0LjE3LDAsNi4yNGMyLjExLDAsNC4xMSwwLDYuMTksMGMwLTIuMTQsMC00LjE1LDAtNi4yNCYjMTA7JiM5OyYjOTtDNDMuMzksMTA4LjcsNDEuNDIsMTA4LjcsMzkuMjgsMTA4Ljd6IiBjbGFzcz0ic3QxMCIvPiYjeGE7CTxsaW5lYXJHcmFkaWVudCB5Mj0iMTIxLjMwMjkiIHgyPSIxMzguMzgzIiB5MT0iMTAyLjM3NzYiIHgxPSIxMzguMzgzIiBncmFkaWVudFVuaXRzPSJ1c2VyU3BhY2VPblVzZSIgaWQ9IlNWR0lEXzEyXyI+JiN4YTsJCTxzdG9wIHN0eWxlPSJzdG9wLWNvbG9yOiMwRUE1RTkiIG9mZnNldD0iMCIvPiYjeGE7CQk8c3RvcCBzdHlsZT0ic3RvcC1jb2xvcjojMDI4NEM3IiBvZmZzZXQ9IjEiLz4mI3hhOwk8L2xpbmVhckdyYWRpZW50PiYjeGE7CTxwYXRoIGQ9Ik0xMjIuNDUsMTIxLjNjMC02LjM5LDAtMTIuNTgsMC0xOC45M2MxMC42NCwwLDIxLjIxLDAsMzEuODcsMGMwLDYuMzIsMCwxMi41NiwwLDE4LjkzJiMxMDsmIzk7JiM5O0MxNDMuNjksMTIxLjMsMTMzLjE3LDEyMS4zLDEyMi40NSwxMjEuM3ogTTEzNS4xLDExNC45OGMwLTIuMTYsMC00LjE4LDAtNi4yNWMtMi4xMywwLTQuMTUsMC02LjIyLDBjMCwyLjEzLDAsNC4xNCwwLDYuMjUmIzEwOyYjOTsmIzk7QzEzMC45NiwxMTQuOTgsMTMyLjkzLDExNC45OCwxMzUuMSwxMTQuOTh6IE0xNDEuNzIsMTA4LjdjMCwyLjE0LDAsNC4yLDAsNi4yMmMyLjE2LDAsNC4xNywwLDYuMTIsMGMwLTIuMTcsMC00LjE4LDAtNi4yMiYjMTA7JiM5OyYjOTtDMTQ1LjczLDEwOC43LDE0My43NywxMDguNywxNDEuNzIsMTA4Ljd6IiBjbGFzcz0ic3QxMSIvPiYjeGE7CTxsaW5lYXJHcmFkaWVudCB5Mj0iODIuOTIzNSIgeDI9IjkzLjU4OTciIHkxPSI3MC4zNDE4IiB4MT0iOTMuNTg5NyIgZ3JhZGllbnRVbml0cz0idXNlclNwYWNlT25Vc2UiIGlkPSJTVkdJRF8xM18iPiYjeGE7CQk8c3RvcCBzdHlsZT0ic3RvcC1jb2xvcjojMEVBNUU5IiBvZmZzZXQ9IjAiLz4mI3hhOwkJPHN0b3Agc3R5bGU9InN0b3AtY29sb3I6IzAyODRDNyIgb2Zmc2V0PSIxIi8+JiN4YTsJPC9saW5lYXJHcmFkaWVudD4mI3hhOwk8cGF0aCBkPSJNOTYuNzIsNzAuMzRjMCw0LjIyLDAsOC4zNCwwLDEyLjU4Yy0yLjEsMC00LjEyLDAtNi4yNSwwYzAtNC4yLDAtOC4zMiwwLTEyLjU4JiMxMDsmIzk7JiM5O0M5Mi40OCw3MC4zNCw5NC40OSw3MC4zNCw5Ni43Miw3MC4zNHoiIGNsYXNzPSJzdDEyIi8+JiN4YTsJPGxpbmVhckdyYWRpZW50IHkyPSI3Ny4xMDQiIHgyPSIxNzYuODEzIiB5MT0iNjMuOTU2MyIgeDE9IjE3Ni44MTMiIGdyYWRpZW50VW5pdHM9InVzZXJTcGFjZU9uVXNlIiBpZD0iU1ZHSURfMTRfIj4mI3hhOwkJPHN0b3Agc3R5bGU9InN0b3AtY29sb3I6IzBFQTVFOSIgb2Zmc2V0PSIwIi8+JiN4YTsJCTxzdG9wIHN0eWxlPSJzdG9wLWNvbG9yOiMwMjg0QzciIG9mZnNldD0iMSIvPiYjeGE7CTwvbGluZWFyR3JhZGllbnQ+JiN4YTsJPHBhdGggZD0iTTE3OS44Niw2My45NmMwLDQuMzcsMCw4LjYxLDAsMTIuNjRjLTIuMDcsMC4xNy00LjAxLDAuMzQtNi4wOSwwLjUxYzAtNC4yMywwLTguNjMsMC0xMy4xNSYjMTA7JiM5OyYjOTtDMTc1Ljc2LDYzLjk2LDE3Ny43MSw2My45NiwxNzkuODYsNjMuOTZ6IiBjbGFzcz0ic3QxMyIvPiYjeGE7CTxsaW5lYXJHcmFkaWVudCB5Mj0iNzcuMDk0MSIgeDI9IjEwLjM1MzMiIHkxPSI2My45NzM4IiB4MT0iMTAuMzUzMyIgZ3JhZGllbnRVbml0cz0idXNlclNwYWNlT25Vc2UiIGlkPSJTVkdJRF8xNV8iPiYjeGE7CQk8c3RvcCBzdHlsZT0ic3RvcC1jb2xvcjojMEVBNUU5IiBvZmZzZXQ9IjAiLz4mI3hhOwkJPHN0b3Agc3R5bGU9InN0b3AtY29sb3I6IzAyODRDNyIgb2Zmc2V0PSIxIi8+JiN4YTsJPC9saW5lYXJHcmFkaWVudD4mI3hhOwk8cGF0aCBkPSJNMTMuMzcsNzcuMDljLTEuOTctMC4xNi0zLjkyLTAuMzMtNi4wNC0wLjVjMC0zLjk4LDAtOC4yMywwLTEyLjYyYzEuOTcsMCwzLjkzLDAsNi4wNCwwJiMxMDsmIzk7JiM5O0MxMy4zNyw2OC4zNiwxMy4zNyw3Mi43OCwxMy4zNyw3Ny4wOXoiIGNsYXNzPSJzdDE0Ii8+JiN4YTsJPGxpbmVhckdyYWRpZW50IHkyPSI4MS4yMzE5IiB4Mj0iMTY0LjAzNjYiIHkxPSI3My41NDAxIiB4MT0iMTY0LjAzNjYiIGdyYWRpZW50VW5pdHM9InVzZXJTcGFjZU9uVXNlIiBpZD0iU1ZHSURfMTZfIj4mI3hhOwkJPHN0b3Agc3R5bGU9InN0b3AtY29sb3I6IzBFQTVFOSIgb2Zmc2V0PSIwIi8+JiN4YTsJCTxzdG9wIHN0eWxlPSJzdG9wLWNvbG9yOiMwMjg0QzciIG9mZnNldD0iMSIvPiYjeGE7CTwvbGluZWFyR3JhZGllbnQ+JiN4YTsJPHBhdGggZD0iTTE2MC44OCw4MS4yM2MwLTIuNzEsMC01LjE0LDAtNy42OWMyLjA4LDAsNC4wOSwwLDYuMywwYzAsMS43MywwLjAzLDMuNDEtMC4wMyw1LjA4JiMxMDsmIzk7JiM5O2MtMC4wMSwwLjMyLTAuMzMsMC44Mi0wLjYxLDAuOTFDMTY0LjczLDgwLjEzLDE2Mi44OSw4MC42NCwxNjAuODgsODEuMjN6IiBjbGFzcz0ic3QxNSIvPiYjeGE7CTxsaW5lYXJHcmFkaWVudCB5Mj0iODEuMjExNyIgeDI9IjIzLjEyMjgiIHkxPSI3My41MzA1IiB4MT0iMjMuMTIyOCIgZ3JhZGllbnRVbml0cz0idXNlclNwYWNlT25Vc2UiIGlkPSJTVkdJRF8xN18iPiYjeGE7CQk8c3RvcCBzdHlsZT0ic3RvcC1jb2xvcjojMEVBNUU5IiBvZmZzZXQ9IjAiLz4mI3hhOwkJPHN0b3Agc3R5bGU9InN0b3AtY29sb3I6IzAyODRDNyIgb2Zmc2V0PSIxIi8+JiN4YTsJPC9saW5lYXJHcmFkaWVudD4mI3hhOwk8cGF0aCBkPSJNMjYuMjgsNzMuNTNjMCwyLjU0LDAsNC45OCwwLDcuNjhjLTEuOTktMC41OC0zLjgzLTEuMDktNS42NC0xLjY4Yy0wLjI5LTAuMDktMC42My0wLjU4LTAuNjQtMC44OSYjMTA7JiM5OyYjOTtjLTAuMDYtMS42Ny0wLjAzLTMuMzUtMC4wMy01LjExQzIyLjE2LDczLjUzLDI0LjE3LDczLjUzLDI2LjI4LDczLjUzeiIgY2xhc3M9InN0MTYiLz4mI3hhOwk8bGluZWFyR3JhZGllbnQgeTI9IjgyLjkwNzIiIHgyPSI4MC43NjM0IiB5MT0iNzYuNzk0NyIgeDE9IjgwLjc2MzQiIGdyYWRpZW50VW5pdHM9InVzZXJTcGFjZU9uVXNlIiBpZD0iU1ZHSURfMThfIj4mI3hhOwkJPHN0b3Agc3R5bGU9InN0b3AtY29sb3I6IzBFQTVFOSIgb2Zmc2V0PSIwIi8+JiN4YTsJCTxzdG9wIHN0eWxlPSJzdG9wLWNvbG9yOiMwMjg0QzciIG9mZnNldD0iMSIvPiYjeGE7CTwvbGluZWFyR3JhZGllbnQ+JiN4YTsJPHBhdGggZD0iTTc3LjY5LDgyLjkxYzAtMi4wMywwLTQsMC02LjExYzEuOTksMCw0LDAsNi4xNiwwYzAsMS45NywwLDMuOTgsMCw2LjExQzgxLjc5LDgyLjkxLDc5Ljc5LDgyLjkxLDc3LjY5LDgyLjkxJiMxMDsmIzk7JiM5O3oiIGNsYXNzPSJzdDE3Ii8+JiN4YTsJPGxpbmVhckdyYWRpZW50IHkyPSI4Mi45NDIiIHgyPSIxMDYuMzg5OCIgeTE9Ijc2Ljc2MzUiIHgxPSIxMDYuMzg5OCIgZ3JhZGllbnRVbml0cz0idXNlclNwYWNlT25Vc2UiIGlkPSJTVkdJRF8xOV8iPiYjeGE7CQk8c3RvcCBzdHlsZT0ic3RvcC1jb2xvcjojMEVBNUU5IiBvZmZzZXQ9IjAiLz4mI3hhOwkJPHN0b3Agc3R5bGU9InN0b3AtY29sb3I6IzAyODRDNyIgb2Zmc2V0PSIxIi8+JiN4YTsJPC9saW5lYXJHcmFkaWVudD4mI3hhOwk8cGF0aCBkPSJNMTA5LjQ2LDgyLjk0Yy0yLjA2LDAtNC4wMywwLTYuMTQsMGMwLTIuMDUsMC00LjA2LDAtNi4xOGMyLjAzLDAsNC4wMywwLDYuMTQsMCYjMTA7JiM5OyYjOTtDMTA5LjQ2LDc4LjgzLDEwOS40Niw4MC44NCwxMDkuNDYsODIuOTR6IiBjbGFzcz0ic3QxOCIvPiYjeGE7CTxsaW5lYXJHcmFkaWVudCB5Mj0iMzQuOTk1MSIgeDI9IjE2My45OTAyIiB5MT0iOS40MzUxIiB4MT0iMTYzLjk5MDIiIGdyYWRpZW50VW5pdHM9InVzZXJTcGFjZU9uVXNlIiBpZD0iU1ZHSURfMjBfIj4mI3hhOwkJPHN0b3Agc3R5bGU9InN0b3AtY29sb3I6IzBFQTVFOSIgb2Zmc2V0PSIwIi8+JiN4YTsJCTxzdG9wIHN0eWxlPSJzdG9wLWNvbG9yOiMwMjg0QzciIG9mZnNldD0iMSIvPiYjeGE7CTwvbGluZWFyR3JhZGllbnQ+JiN4YTsJPHBhdGggZD0iTTE2My44OSwzNC45OWMtNy4wNi0wLjA0LTEyLjctNS43Ny0xMi42Ny0xMi44OGMwLjAzLTcuMDQsNS44Mi0xMi43NSwxMi44OC0xMi42OCYjMTA7JiM5OyYjOTtjNy4wOSwwLjA3LDEyLjc1LDUuODEsMTIuNjgsMTIuODhDMTc2LjcsMjkuNDEsMTcwLjk4LDM1LjA0LDE2My44OSwzNC45OXoiIGNsYXNzPSJzdDE5Ii8+JiN4YTsJPGxpbmVhckdyYWRpZW50IHkyPSIzNC45OTUzIiB4Mj0iMjMuMTYwOCIgeTE9IjkuNDM5OSIgeDE9IjIzLjE2MDgiIGdyYWRpZW50VW5pdHM9InVzZXJTcGFjZU9uVXNlIiBpZD0iU1ZHSURfMjFfIj4mI3hhOwkJPHN0b3Agc3R5bGU9InN0b3AtY29sb3I6IzBFQTVFOSIgb2Zmc2V0PSIwIi8+JiN4YTsJCTxzdG9wIHN0eWxlPSJzdG9wLWNvbG9yOiMwMjg0QzciIG9mZnNldD0iMSIvPiYjeGE7CTwvbGluZWFyR3JhZGllbnQ+JiN4YTsJPHBhdGggZD0iTTIzLjA2LDM1Yy03LjA0LTAuMDMtMTIuNzYtNS44My0xMi42OC0xMi44OGMwLjA4LTcuMTEsNS44Mi0xMi43NiwxMi44OC0xMi42OCYjMTA7JiM5OyYjOTtjNy4xLDAuMDgsMTIuNzIsNS43OCwxMi42OCwxMi44OEMzNS45LDI5LjM5LDMwLjE3LDM1LjAyLDIzLjA2LDM1eiIgY2xhc3M9InN0MjAiLz4mI3hhOwk8bGluZWFyR3JhZGllbnQgeTI9IjM0Ljk5NSIgeDI9IjkzLjU3NjUiIHkxPSI5LjQ0MSIgeDE9IjkzLjU3NjUiIGdyYWRpZW50VW5pdHM9InVzZXJTcGFjZU9uVXNlIiBpZD0iU1ZHSURfMjJfIj4mI3hhOwkJPHN0b3Agc3R5bGU9InN0b3AtY29sb3I6IzBFQTVFOSIgb2Zmc2V0PSIwIi8+JiN4YTsJCTxzdG9wIHN0eWxlPSJzdG9wLWNvbG9yOiMwMjg0QzciIG9mZnNldD0iMSIvPiYjeGE7CTwvbGluZWFyR3JhZGllbnQ+JiN4YTsJPHBhdGggZD0iTTEwNi4zMywyMi4xNmMwLjAzLDcuMS01LjYzLDEyLjgyLTEyLjcsMTIuODNjLTcuMTEsMC4wMi0xMi43OS01LjYzLTEyLjgxLTEyLjcyJiMxMDsmIzk7JiM5O2MtMC4wMi03LjExLDUuNi0xMi43OSwxMi43LTEyLjgzQzEwMC42LDkuNCwxMDYuMzEsMTUuMDYsMTA2LjMzLDIyLjE2eiIgY2xhc3M9InN0MjEiLz4mI3hhOwk8bGluZWFyR3JhZGllbnQgeTI9IjExNC45NjQxIiB4Mj0iOTMuNjA2NSIgeTE9IjEwOC43NzU4IiB4MT0iOTMuNjA2NSIgZ3JhZGllbnRVbml0cz0idXNlclNwYWNlT25Vc2UiIGlkPSJTVkdJRF8yM18iPiYjeGE7CQk8c3RvcCBzdHlsZT0ic3RvcC1jb2xvcjojMEVBNUU5IiBvZmZzZXQ9IjAiLz4mI3hhOwkJPHN0b3Agc3R5bGU9InN0b3AtY29sb3I6IzAyODRDNyIgb2Zmc2V0PSIxIi8+JiN4YTsJPC9saW5lYXJHcmFkaWVudD4mI3hhOwk8cGF0aCBkPSJNOTYuNywxMDguNzhjMCwyLjA2LDAsNC4wNywwLDYuMTljLTIuMDcsMC00LjA1LDAtNi4xOCwwYzAtMS45OSwwLTQuMDEsMC02LjE5JiMxMDsmIzk7JiM5O0M5Mi40OSwxMDguNzgsOTQuNTQsMTA4Ljc4LDk2LjcsMTA4Ljc4eiIgY2xhc3M9InN0MjIiLz4mI3hhOwk8bGluZWFyR3JhZGllbnQgeTI9IjExNC45ODg2IiB4Mj0iODAuNzg1MyIgeTE9IjEwOC43NTQyIiB4MT0iODAuNzg1MyIgZ3JhZGllbnRVbml0cz0idXNlclNwYWNlT25Vc2UiIGlkPSJTVkdJRF8yNF8iPiYjeGE7CQk8c3RvcCBzdHlsZT0ic3RvcC1jb2xvcjojMEVBNUU5IiBvZmZzZXQ9IjAiLz4mI3hhOwkJPHN0b3Agc3R5bGU9InN0b3AtY29sb3I6IzAyODRDNyIgb2Zmc2V0PSIxIi8+JiN4YTsJPC9saW5lYXJHcmFkaWVudD4mI3hhOwk8cGF0aCBkPSJNODMuODUsMTE0Ljk5Yy0yLjA3LDAtNC4wMywwLTYuMTIsMGMwLTIuMDcsMC00LjA4LDAtNi4yM2MxLjk3LDAsMy45NywwLDYuMTIsMCYjMTA7JiM5OyYjOTtDODMuODUsMTEwLjc5LDgzLjg1LDExMi44NSw4My44NSwxMTQuOTl6IiBjbGFzcz0ic3QyMyIvPiYjeGE7CTxsaW5lYXJHcmFkaWVudCB5Mj0iMTE0LjkzNDMiIHgyPSIxMDYuMzk3NCIgeTE9IjEwOC43NDU0IiB4MT0iMTA2LjM5NzQiIGdyYWRpZW50VW5pdHM9InVzZXJTcGFjZU9uVXNlIiBpZD0iU1ZHSURfMjVfIj4mI3hhOwkJPHN0b3Agc3R5bGU9InN0b3AtY29sb3I6IzBFQTVFOSIgb2Zmc2V0PSIwIi8+JiN4YTsJCTxzdG9wIHN0eWxlPSJzdG9wLWNvbG9yOiMwMjg0QzciIG9mZnNldD0iMSIvPiYjeGE7CTwvbGluZWFyR3JhZGllbnQ+JiN4YTsJPHBhdGggZD0iTTEwOS41LDEwOC43NWMwLDIuMTIsMCw0LjA5LDAsNi4xOWMtMi4wNiwwLTQuMDcsMC02LjIsMGMwLTIuMDMsMC00LjA0LDAtNi4xOSYjMTA7JiM5OyYjOTtDMTA1LjMzLDEwOC43NSwxMDcuMzMsMTA4Ljc1LDEwOS41LDEwOC43NXoiIGNsYXNzPSJzdDI0Ii8+JiN4YTsJPGxpbmVhckdyYWRpZW50IHkyPSIxMDIuMTA4NiIgeDI9IjEwNi4zNzUiIHkxPSI5NS45OTU1IiB4MT0iMTA2LjM3NSIgZ3JhZGllbnRVbml0cz0idXNlclNwYWNlT25Vc2UiIGlkPSJTVkdJRF8yNl8iPiYjeGE7CQk8c3RvcCBzdHlsZT0ic3RvcC1jb2xvcjojMEVBNUU5IiBvZmZzZXQ9IjAiLz4mI3hhOwkJPHN0b3Agc3R5bGU9InN0b3AtY29sb3I6IzAyODRDNyIgb2Zmc2V0PSIxIi8+JiN4YTsJPC9saW5lYXJHcmFkaWVudD4mI3hhOwk8cGF0aCBkPSJNMTA5LjQ3LDk2YzAsMi4wOCwwLDQuMDQsMCw2LjExYy0yLjA5LDAtNC4wOSwwLTYuMTksMGMwLTIuMDYsMC00LjAyLDAtNi4xMUMxMDUuMzIsOTYsMTA3LjMxLDk2LDEwOS40Nyw5NnoiIGNsYXNzPSJzdDI1Ii8+JiN4YTsJPGxpbmVhckdyYWRpZW50IHkyPSIxMDIuMDk1OCIgeDI9IjkzLjU4OTciIHkxPSI5Ni4wMDUxIiB4MT0iOTMuNTg5NyIgZ3JhZGllbnRVbml0cz0idXNlclNwYWNlT25Vc2UiIGlkPSJTVkdJRF8yN18iPiYjeGE7CQk8c3RvcCBzdHlsZT0ic3RvcC1jb2xvcjojMEVBNUU5IiBvZmZzZXQ9IjAiLz4mI3hhOwkJPHN0b3Agc3R5bGU9InN0b3AtY29sb3I6IzAyODRDNyIgb2Zmc2V0PSIxIi8+JiN4YTsJPC9saW5lYXJHcmFkaWVudD4mI3hhOwk8cGF0aCBkPSJNOTYuNzEsOTYuMDFjMCwyLjA0LDAsNCwwLDYuMDljLTIuMSwwLTQuMTEsMC02LjI0LDBjMC0yLjAyLDAtMy45OCwwLTYuMDkmIzEwOyYjOTsmIzk7QzkyLjQ3LDk2LjAxLDk0LjQ5LDk2LjAxLDk2LjcxLDk2LjAxeiIgY2xhc3M9InN0MjYiLz4mI3hhOwk8bGluZWFyR3JhZGllbnQgeTI9IjEwMi4xMzAzIiB4Mj0iODAuNzk2IiB5MT0iOTUuOTY4NSIgeDE9IjgwLjc5NiIgZ3JhZGllbnRVbml0cz0idXNlclNwYWNlT25Vc2UiIGlkPSJTVkdJRF8yOF8iPiYjeGE7CQk8c3RvcCBzdHlsZT0ic3RvcC1jb2xvcjojMEVBNUU5IiBvZmZzZXQ9IjAiLz4mI3hhOwkJPHN0b3Agc3R5bGU9InN0b3AtY29sb3I6IzAyODRDNyIgb2Zmc2V0PSIxIi8+JiN4YTsJPC9saW5lYXJHcmFkaWVudD4mI3hhOwk8cGF0aCBkPSJNODMuODcsMTAyLjEzYy0yLjExLDAtNC4wNywwLTYuMTUsMGMwLTIuMDQsMC00LjA1LDAtNi4xNmMyLjA0LDAsNC4wNCwwLDYuMTUsMCYjMTA7JiM5OyYjOTtDODMuODcsOTcuOTgsODMuODcsOTkuOTQsODMuODcsMTAyLjEzeiIgY2xhc3M9InN0MjciLz4mI3hhOwk8bGluZWFyR3JhZGllbnQgeTI9IjExNC45NTg2IiB4Mj0iMTYuNzQ5MyIgeTE9IjEwOC43MjExIiB4MT0iMTYuNzQ5MyIgZ3JhZGllbnRVbml0cz0idXNlclNwYWNlT25Vc2UiIGlkPSJTVkdJRF8yOV8iPiYjeGE7CQk8c3RvcCBzdHlsZT0ic3RvcC1jb2xvcjojMEVBNUU5IiBvZmZzZXQ9IjAiLz4mI3hhOwkJPHN0b3Agc3R5bGU9InN0b3AtY29sb3I6IzAyODRDNyIgb2Zmc2V0PSIxIi8+JiN4YTsJPC9saW5lYXJHcmFkaWVudD4mI3hhOwk8cGF0aCBkPSJNMTMuNjMsMTE0Ljk2YzAtMi4xOSwwLTQuMTYsMC02LjI0YzIuMTEsMCw0LjEzLDAsNi4yNCwwYzAsMi4wOSwwLDQuMTEsMCw2LjI0JiMxMDsmIzk7JiM5O0MxNy43OSwxMTQuOTYsMTUuNzcsMTE0Ljk2LDEzLjYzLDExNC45NnoiIGNsYXNzPSJzdDI4Ii8+JiN4YTsJPGxpbmVhckdyYWRpZW50IHkyPSIxMDIuMjA1NCIgeDI9IjE2LjY5OTkiIHkxPSI5NS45NTAxIiB4MT0iMTYuNjk5OSIgZ3JhZGllbnRVbml0cz0idXNlclNwYWNlT25Vc2UiIGlkPSJTVkdJRF8zMF8iPiYjeGE7CQk8c3RvcCBzdHlsZT0ic3RvcC1jb2xvcjojMEVBNUU5IiBvZmZzZXQ9IjAiLz4mI3hhOwkJPHN0b3Agc3R5bGU9InN0b3AtY29sb3I6IzAyODRDNyIgb2Zmc2V0PSIxIi8+JiN4YTsJPC9saW5lYXJHcmFkaWVudD4mI3hhOwk8cGF0aCBkPSJNMTMuNTQsOTUuOTVjMi4yMSwwLDQuMjMsMCw2LjM0LDBjMCwyLjA1LDAsNC4wMSwwLDYuMjVjLTEuODYsMC0zLjcsMC4wNC01LjUzLTAuMDQmIzEwOyYjOTsmIzk7Yy0wLjI4LTAuMDEtMC43NS0wLjU4LTAuNzctMC45MkMxMy41LDk5LjUxLDEzLjU0LDk3Ljc4LDEzLjU0LDk1Ljk1eiIgY2xhc3M9InN0MjkiLz4mI3hhOwk8bGluZWFyR3JhZGllbnQgeTI9IjExNC45NTUyIiB4Mj0iMTcwLjM5NzgiIHkxPSIxMDguNzE4OSIgeDE9IjE3MC4zOTc4IiBncmFkaWVudFVuaXRzPSJ1c2VyU3BhY2VPblVzZSIgaWQ9IlNWR0lEXzMxXyI+JiN4YTsJCTxzdG9wIHN0eWxlPSJzdG9wLWNvbG9yOiMwRUE1RTkiIG9mZnNldD0iMCIvPiYjeGE7CQk8c3RvcCBzdHlsZT0ic3RvcC1jb2xvcjojMDI4NEM3IiBvZmZzZXQ9IjEiLz4mI3hhOwk8L2xpbmVhckdyYWRpZW50PiYjeGE7CTxwYXRoIGQ9Ik0xNjcuMjgsMTE0Ljk2YzAtMi4xLDAtNC4xMSwwLTYuMjRjMi4wOCwwLDQuMSwwLDYuMjMsMGMwLDIuMDksMCw0LjExLDAsNi4yNCYjMTA7JiM5OyYjOTtDMTcxLjQxLDExNC45NiwxNjkuNCwxMTQuOTYsMTY3LjI4LDExNC45NnoiIGNsYXNzPSJzdDMwIi8+JiN4YTsJPGxpbmVhckdyYWRpZW50IHkyPSIxMDIuMDQ1NCIgeDI9IjE3MC40Mzg4IiB5MT0iOTUuOTY1NCIgeDE9IjE3MC40Mzg4IiBncmFkaWVudFVuaXRzPSJ1c2VyU3BhY2VPblVzZSIgaWQ9IlNWR0lEXzMyXyI+JiN4YTsJCTxzdG9wIHN0eWxlPSJzdG9wLWNvbG9yOiMwRUE1RTkiIG9mZnNldD0iMCIvPiYjeGE7CQk8c3RvcCBzdHlsZT0ic3RvcC1jb2xvcjojMDI4NEM3IiBvZmZzZXQ9IjEiLz4mI3hhOwk8L2xpbmVhckdyYWRpZW50PiYjeGE7CTxwYXRoIGQ9Ik0xNzMuNTUsOTUuOTdjMCwyLjA5LDAsNCwwLDYuMDhjLTIuMDcsMC00LjA4LDAtNi4yMywwYzAtMS45NSwwLTMuOTYsMC02LjA4JiMxMDsmIzk7JiM5O0MxNjkuMzUsOTUuOTcsMTcxLjM2LDk1Ljk3LDE3My41NSw5NS45N3oiIGNsYXNzPSJzdDMxIi8+JiN4YTsJPGxpbmVhckdyYWRpZW50IHkyPSIxMTQuOTkxIiB4Mj0iNTUuMTY2OSIgeTE9IjEwOC43NDUzIiB4MT0iNTUuMTY2OSIgZ3JhZGllbnRVbml0cz0idXNlclNwYWNlT25Vc2UiIGlkPSJTVkdJRF8zM18iPiYjeGE7CQk8c3RvcCBzdHlsZT0ic3RvcC1jb2xvcjojMEVBNUU5IiBvZmZzZXQ9IjAiLz4mI3hhOwkJPHN0b3Agc3R5bGU9InN0b3AtY29sb3I6IzAyODRDNyIgb2Zmc2V0PSIxIi8+JiN4YTsJPC9saW5lYXJHcmFkaWVudD4mI3hhOwk8cGF0aCBkPSJNNTguMjYsMTE0Ljk5Yy0yLjExLDAtNC4wOCwwLTYuMTksMGMwLTIuMDgsMC00LjEsMC02LjI1YzIuMDMsMCw0LjA0LDAsNi4xOSwwJiMxMDsmIzk7JiM5O0M1OC4yNiwxMTAuNzcsNTguMjYsMTEyLjc4LDU4LjI2LDExNC45OXoiIGNsYXNzPSJzdDMyIi8+JiN4YTsJPGxpbmVhckdyYWRpZW50IHkyPSIxMTQuOTQxNiIgeDI9IjQyLjM3NTEiIHkxPSIxMDguNjk3OCIgeDE9IjQyLjM3NTEiIGdyYWRpZW50VW5pdHM9InVzZXJTcGFjZU9uVXNlIiBpZD0iU1ZHSURfMzRfIj4mI3hhOwkJPHN0b3Agc3R5bGU9InN0b3AtY29sb3I6IzBFQTVFOSIgb2Zmc2V0PSIwIi8+JiN4YTsJCTxzdG9wIHN0eWxlPSJzdG9wLWNvbG9yOiMwMjg0QzciIG9mZnNldD0iMSIvPiYjeGE7CTwvbGluZWFyR3JhZGllbnQ+JiN4YTsJPHBhdGggZD0iTTM5LjI4LDEwOC43YzIuMTQsMCw0LjEsMCw2LjE5LDBjMCwyLjA5LDAsNC4xMSwwLDYuMjRjLTIuMDgsMC00LjA4LDAtNi4xOSwwJiMxMDsmIzk7JiM5O0MzOS4yOCwxMTIuODcsMzkuMjgsMTEwLjg2LDM5LjI4LDEwOC43eiIgY2xhc3M9InN0MzMiLz4mI3hhOwk8bGluZWFyR3JhZGllbnQgeTI9IjExNC45NzUyIiB4Mj0iMTMxLjk4NzEiIHkxPSIxMDguNzI2NCIgeDE9IjEzMS45ODcxIiBncmFkaWVudFVuaXRzPSJ1c2VyU3BhY2VPblVzZSIgaWQ9IlNWR0lEXzM1XyI+JiN4YTsJCTxzdG9wIHN0eWxlPSJzdG9wLWNvbG9yOiMwRUE1RTkiIG9mZnNldD0iMCIvPiYjeGE7CQk8c3RvcCBzdHlsZT0ic3RvcC1jb2xvcjojMDI4NEM3IiBvZmZzZXQ9IjEiLz4mI3hhOwk8L2xpbmVhckdyYWRpZW50PiYjeGE7CTxwYXRoIGQ9Ik0xMzUuMSwxMTQuOThjLTIuMTcsMC00LjE0LDAtNi4yMiwwYzAtMi4xLDAtNC4xMiwwLTYuMjVjMi4wNywwLDQuMDksMCw2LjIyLDAmIzEwOyYjOTsmIzk7QzEzNS4xLDExMC44LDEzNS4xLDExMi44MSwxMzUuMSwxMTQuOTh6IiBjbGFzcz0ic3QzNCIvPiYjeGE7CTxsaW5lYXJHcmFkaWVudCB5Mj0iMTE0LjkxMjEiIHgyPSIxNDQuNzc3NiIgeTE9IjEwOC42OTYzIiB4MT0iMTQ0Ljc3NzYiIGdyYWRpZW50VW5pdHM9InVzZXJTcGFjZU9uVXNlIiBpZD0iU1ZHSURfMzZfIj4mI3hhOwkJPHN0b3Agc3R5bGU9InN0b3AtY29sb3I6IzBFQTVFOSIgb2Zmc2V0PSIwIi8+JiN4YTsJCTxzdG9wIHN0eWxlPSJzdG9wLWNvbG9yOiMwMjg0QzciIG9mZnNldD0iMSIvPiYjeGE7CTwvbGluZWFyR3JhZGllbnQ+JiN4YTsJPHBhdGggZD0iTTE0MS43MiwxMDguN2MyLjA1LDAsNC4wMiwwLDYuMTIsMGMwLDIuMDMsMCw0LjA1LDAsNi4yMmMtMS45NSwwLTMuOTYsMC02LjEyLDAmIzEwOyYjOTsmIzk7QzE0MS43MiwxMTIuOSwxNDEuNzIsMTEwLjg0LDE0MS43MiwxMDguN3oiIGNsYXNzPSJzdDM1Ii8+JiN4YTs8L2c+JiN4YTs8L3N2Zz4=;" vertex="1" parent="87GCZqK9oe9EleAZIWvs-42">
          <mxGeometry width="60" height="60" as="geometry" />
        </mxCell>
        <mxCell id="87GCZqK9oe9EleAZIWvs-41" value="Sucursal" style="rounded=0;whiteSpace=wrap;html=1;fillColor=none;strokeColor=none;" vertex="1" parent="87GCZqK9oe9EleAZIWvs-42">
          <mxGeometry y="59.995789473684226" width="60" height="23.684210526315788" as="geometry" />
        </mxCell>
        <mxCell id="87GCZqK9oe9EleAZIWvs-48" value="" style="group" vertex="1" connectable="0" parent="1">
          <mxGeometry x="60" y="240" width="60" height="83.68" as="geometry" />
        </mxCell>
        <mxCell id="87GCZqK9oe9EleAZIWvs-43" value="" style="shape=image;verticalLabelPosition=bottom;labelBackgroundColor=default;verticalAlign=top;aspect=fixed;imageAspect=0;image=data:image/svg+xml,PHN2ZyB4bWxuczp4bGluaz0iaHR0cDovL3d3dy53My5vcmcvMTk5OS94bGluayIgeG1sbnM9Imh0dHA6Ly93d3cudzMub3JnLzIwMDAvc3ZnIiB4bWw6c3BhY2U9InByZXNlcnZlIiBzdHlsZT0iZW5hYmxlLWJhY2tncm91bmQ6bmV3IDAgMCAxODYuNCAxODYuNDsiIHZpZXdCb3g9IjAgMCAxODYuNCAxODYuNCIgeT0iMHB4IiB4PSIwcHgiIGlkPSJDYXBhXzEiIHZlcnNpb249IjEuMSI+JiN4YTs8c3R5bGUgdHlwZT0idGV4dC9jc3MiPiYjeGE7CS5zdDB7ZmlsbDp1cmwoI1NWR0lEXzFfKTt9JiN4YTsJLnN0MXtmaWxsOnVybCgjU1ZHSURfMl8pO30mI3hhOwkuc3Qye2ZpbGw6dXJsKCNTVkdJRF8zXyk7fSYjeGE7CS5zdDN7ZmlsbDp1cmwoI1NWR0lEXzRfKTt9JiN4YTsJLnN0NHtmaWxsOnVybCgjU1ZHSURfNV8pO30mI3hhOwkuc3Q1e2ZpbGw6dXJsKCNTVkdJRF82Xyk7fSYjeGE7CS5zdDZ7ZmlsbDp1cmwoI1NWR0lEXzdfKTt9JiN4YTs8L3N0eWxlPiYjeGE7PGc+JiN4YTsJPGxpbmVhckdyYWRpZW50IHkyPSIxMzEuNzMwMyIgeDI9IjE1MC41NDk0IiB5MT0iMTMxLjczMDMiIHgxPSI2Ni40NjczIiBncmFkaWVudFVuaXRzPSJ1c2VyU3BhY2VPblVzZSIgaWQ9IlNWR0lEXzFfIj4mI3hhOwkJPHN0b3Agc3R5bGU9InN0b3AtY29sb3I6IzBFQTVFOSIgb2Zmc2V0PSIwIi8+JiN4YTsJCTxzdG9wIHN0eWxlPSJzdG9wLWNvbG9yOiMwMjg0QzciIG9mZnNldD0iMSIvPiYjeGE7CTwvbGluZWFyR3JhZGllbnQ+JiN4YTsJPHBhdGggZD0iTTY2LjQ3LDkyLjdjMi40Ni0yLjg5LDMuMzYtMy4wNCw2LjQ0LTEuMTZjMS42LDAuOTgsMy4xNiwyLjAxLDQuNzksMi45NGM0LjUsMi41NCw5LjYxLDAuMzcsMTAuOTMtNC42NSYjMTA7JiM5OyYjOTtjMC41Ni0yLjExLDEuMDMtNC4yNSwxLjUzLTYuMzdjMC40My0xLjgzLDEuNTMtMi43NywzLjQ2LTIuNzZjMy45NCwwLjAyLDcuODgsMC4wMiwxMS44MiwwYzEuOTMtMC4wMSwzLjAxLDAuOTcsMy40MywyLjc5JiMxMDsmIzk7JiM5O2MwLjUsMi4xMywwLjk3LDQuMjYsMS41Myw2LjM3YzEuMzMsNSw2LjQ0LDcuMTYsMTAuOTUsNC42YzEuOS0xLjA4LDMuNzItMi4yOSw1LjYtMy40MWMxLjg1LTEuMTEsMy4wNi0xLDQuNTUsMC40NiYjMTA7JiM5OyYjOTtjMi43NiwyLjcyLDUuNSw1LjQ2LDguMjIsOC4yMmMxLjQ2LDEuNDksMS41OSwyLjcyLDAuNTEsNC41NGMtMS4wOCwxLjgzLTIuMjQsMy42MS0zLjMxLDUuNDRjLTIuNzMsNC42OC0wLjYxLDkuODEsNC42MiwxMS4xNyYjMTA7JiM5OyYjOTtjMi4wNSwwLjUzLDQuMTMsMC45OSw2LjE5LDEuNWMyLjA2LDAuNTIsMi44MSwxLjQ1LDIuODIsMy41OGMwLjAyLDMuODgtMC4wMSw3Ljc1LDAuMDEsMTEuNjNjMC4wMSwxLjkyLTAuOSwzLjA1LTIuNzIsMy40OSYjMTA7JiM5OyYjOTtjLTIuMTIsMC41Mi00LjI1LDEtNi4zNywxLjU0Yy01LjAxLDEuMjctNy4yNCw2LjM5LTQuNzEsMTAuODljMS4wNywxLjksMi4yOSwzLjczLDMuNDEsNS42YzEuMTYsMS45NCwxLjA1LDMuMTItMC41LDQuNjkmIzEwOyYjOTsmIzk7Yy0yLjY4LDIuNzItNS4zOCw1LjQxLTguMDksOC4wOWMtMS41NywxLjU1LTIuNzYsMS42Ni00LjY5LDAuNWMtMS44Mi0xLjA5LTMuNi0yLjI1LTUuNDQtMy4zMWMtNC41OS0yLjY1LTkuNzItMC41MS0xMS4wNiw0LjYxJiMxMDsmIzk7JiM5O2MtMC41NSwyLjExLTEuMDIsNC4yNS0xLjUzLDYuMzdjLTAuNDQsMS44My0xLjU3LDIuNzQtMy40OSwyLjczYy0zLjk0LTAuMDMtNy44OC0wLjAyLTExLjgyLDBjLTEuODQsMC4wMS0yLjkzLTAuOTItMy4zNi0yLjY1JiMxMDsmIzk7JiM5O2MtMC41My0yLjEyLTAuOTktNC4yNi0xLjU0LTYuMzdjLTEuMzUtNS4yMi02LjQ5LTcuMzUtMTEuMTYtNC42MmMtMS44MywxLjA3LTMuNTksMi4yOC01LjQ1LDMuMjljLTAuODYsMC40Ni0xLjkxLDAuNTktMi41NCwwLjc3JiMxMDsmIzk7JiM5O2MwLTQuNDUsMC04LjYsMC0xMi43NWMwLTE5LTAuMDMtMzguMDEsMC4wMy01Ny4wMUM2OS41Myw5OS41NSw2OC44LDk1Ljk4LDY2LjQ3LDkyLjd6IE04MS41LDEzMS44JiMxMDsmIzk7JiM5O2MwLjAyLDkuOSw4LjE4LDE3Ljk5LDE4LjA4LDE3Ljk0YzkuOTMtMC4wNiwxNy45NC04LjE0LDE3Ljk0LTE4LjA5Yy0wLjAxLTkuODgtOC4xNy0xNy45OC0xOC4wOC0xNy45MyYjMTA7JiM5OyYjOTtDODkuNSwxMTMuNzYsODEuNDgsMTIxLjg2LDgxLjUsMTMxLjh6IiBjbGFzcz0ic3QwIi8+JiN4YTsJPGxpbmVhckdyYWRpZW50IHkyPSIxMzUuNjI2OSIgeDI9IjYzLjQ4ODUiIHkxPSIxMzUuNjI2OSIgeDE9IjMuMzk1MyIgZ3JhZGllbnRVbml0cz0idXNlclNwYWNlT25Vc2UiIGlkPSJTVkdJRF8yXyI+JiN4YTsJCTxzdG9wIHN0eWxlPSJzdG9wLWNvbG9yOiMwRUE1RTkiIG9mZnNldD0iMCIvPiYjeGE7CQk8c3RvcCBzdHlsZT0ic3RvcC1jb2xvcjojMDI4NEM3IiBvZmZzZXQ9IjEiLz4mI3hhOwk8L2xpbmVhckdyYWRpZW50PiYjeGE7CTxwYXRoIGQ9Ik0xNy40Niw4OC40NmMwLjcxLDIuMzUsMS4yNCw0LjEzLDEuOCw1Ljk4Yy0xLjgzLDAuODItMy42NCwxLjQ5LTUuMzEsMi40Yy0xLjE5LDAuNjQtMi4zMywxLjQ4LTMuMjgsMi40NCYjMTA7JiM5OyYjOTtjLTEuNjcsMS42OS0xLjc1LDMuMzUsMC4wOCw0Ljg2YzEuNzksMS40OSwzLjg0LDIuODgsNi4wMSwzLjY2YzExLjI5LDQuMDYsMjIuNjYsNC4wMSwzMy45Mi0wLjE1YzEuOTQtMC43MiwzLjc3LTEuOTcsNS4zNi0zLjMyJiMxMDsmIzk7JiM5O2MyLTEuNywyLjA0LTMuNjMtMC4wMS01LjI2Yy0xLjkyLTEuNTMtNC4yMy0yLjU2LTYuNC0zLjc3Yy0wLjU4LTAuMzItMS4yNS0wLjQ5LTEuOTgtMC43N2MwLjU3LTEuOSwxLjEtMy42OCwxLjctNS42OSYjMTA7JiM5OyYjOTtjNS4xNCwxLjY4LDkuOTksMy42LDEyLjg1LDguNDNjMC43OSwxLjMzLDEuMjMsMy4wNywxLjIzLDQuNjJjMC4wOCwyMi4xNCwwLjA1LDQ0LjI3LDAuMDYsNjYuNDFjMCwzLjQ0LTEuNzQsNS45My00LjM1LDcuODkmIzEwOyYjOTsmIzk7Yy00LjMsMy4yNS05LjMzLDQuNzMtMTQuNTUsNS41OWMtMTAuNTMsMS43NC0yMC45MywxLjM4LTMxLjAyLTIuNDRjLTEuOTEtMC43Mi0zLjczLTEuNzctNS40Mi0yLjkyYy0zLjIxLTIuMTctNC43Ny01LjE2LTQuNzUtOS4yJiMxMDsmIzk7JiM5O2MwLjA5LTIxLjMyLDAuMTEtNDIuNjUtMC4wMS02My45N2MtMC4wMi00LjUzLDEuNy03LjkzLDUuMzctMTAuMjZDMTEuNDIsOTEuMzIsMTQuMzUsOTAuMDYsMTcuNDYsODguNDZ6IE0yMS4zMywxNTIuNjYmIzEwOyYjOTsmIzk7YzAtMTEuMDUsMC0yMS45NCwwLTMyLjc4Yy0yLjAzLDAtMy45MywwLTUuNzcsMGMwLDExLDAsMjEuODUsMCwzMi43OEMxNy41LDE1Mi42NiwxOS4zNSwxNTIuNjYsMjEuMzMsMTUyLjY2eiBNNDUuNiwxMTkuODEmIzEwOyYjOTsmIzk7YzAsMTEuMDQsMCwyMS45MywwLDMyLjc4YzIuMDMsMCwzLjkyLDAsNS43OCwwYzAtMTEsMC0yMS44NSwwLTMyLjc4QzQ5LjQ0LDExOS44MSw0Ny41OSwxMTkuODEsNDUuNiwxMTkuODF6IE0zMC42MSwxMjIuOCYjMTA7JiM5OyYjOTtjMCwxMS4wOCwwLDIxLjk3LDAsMzIuODVjMS45OSwwLDMuODQsMCw1Ljc1LDBjMC0xMC45OSwwLTIxLjg4LDAtMzIuODVDMzQuNCwxMjIuOCwzMi41NSwxMjIuOCwzMC42MSwxMjIuOHogTTMwLjM1LDE3Ni43OSYjMTA7JiM5OyYjOTtjMC0zLjEyLDAtNi4wMiwwLTguOTljLTIuOTMtMC4zNi01LjgxLTAuNzMtOC44LTEuMWMwLDIuOTEsMCw1LjgyLDAsOC45NUMyNC40NiwxNzYuMDMsMjcuMzQsMTc2LjQsMzAuMzUsMTc2Ljc5eiBNNDUuMzgsMTY2LjcyJiMxMDsmIzk7JiM5O2MtMi45OCwwLjM3LTUuODcsMC43Mi04Ljc5LDEuMDhjMCwyLjk3LDAsNS44NywwLDguOTljMy4wMS0wLjM5LDUuODktMC43Niw4Ljc5LTEuMTNDNDUuMzgsMTcyLjUzLDQ1LjM4LDE2OS42Myw0NS4zOCwxNjYuNzJ6JiMxMDsmIzk7JiM5OyBNOS40NSwxNjIuMTVjMCwxLjUxLDAsMi44MiwwLDQuMTNjMCwzLjk0LDEuOCw2LjEyLDYsNy4xM2MwLTIuNTgsMC4wMy01LjEzLTAuMDMtNy42N2MtMC4wMS0wLjM3LTAuMzctMC45LTAuNzEtMS4wOCYjMTA7JiM5OyYjOTtDMTMuMDYsMTYzLjgxLDExLjM2LDE2My4wNSw5LjQ1LDE2Mi4xNXogTTUxLjQ4LDE3My41MmM1LjU3LTEuOSw2LjktNC41OSw1Ljc5LTExLjI1Yy0xLjY4LDAuNzktMy4zNywxLjU1LTUuMDIsMi4zOSYjMTA7JiM5OyYjOTtjLTAuMzUsMC4xOC0wLjczLDAuNjktMC43NCwxLjA2QzUxLjQ1LDE2OC4yNyw1MS40OCwxNzAuODIsNTEuNDgsMTczLjUyeiIgY2xhc3M9InN0MSIvPiYjeGE7CTxsaW5lYXJHcmFkaWVudCB5Mj0iMzguNjgwMiIgeDI9IjE1Ni41NDcyIiB5MT0iMzguNjgwMiIgeDE9IjMwLjQ2MjMiIGdyYWRpZW50VW5pdHM9InVzZXJTcGFjZU9uVXNlIiBpZD0iU1ZHSURfM18iPiYjeGE7CQk8c3RvcCBzdHlsZT0ic3RvcC1jb2xvcjojMEVBNUU5IiBvZmZzZXQ9IjAiLz4mI3hhOwkJPHN0b3Agc3R5bGU9InN0b3AtY29sb3I6IzAyODRDNyIgb2Zmc2V0PSIxIi8+JiN4YTsJPC9saW5lYXJHcmFkaWVudD4mI3hhOwk8cGF0aCBkPSJNOTMuNDksMi42NWMxNy42MywwLDM1LjI2LDAsNTIuODksMGM2LjYzLDAsMTAuMTYsMy41NSwxMC4xNiwxMC4yMWMwLDEzLjI1LDAsMjYuNTEsMCwzOS43NiYjMTA7JiM5OyYjOTtjMCw2LjQ4LTMuNjEsMTAuMDctMTAuMTIsMTAuMDdjLTEzLjU3LDAtMjcuMTMsMC4wMi00MC43LTAuMDNjLTEuMjcsMC0yLjA2LDAuMzgtMi43OCwxLjRjLTIuMTUsMi45OS00LjM5LDUuOTMtNi42Miw4Ljg2JiMxMDsmIzk7JiM5O2MtMS44MiwyLjM5LTMuODEsMi40LTUuNjMsMC4wMWMtMi4yMy0yLjk0LTQuNDYtNS44Ny02LjYyLTguODZjLTAuNzMtMS4wMS0xLjUtMS40MS0yLjc4LTEuNDFjLTEzLjU3LDAuMDUtMjcuMTMsMC4wMy00MC43LDAuMDMmIzEwOyYjOTsmIzk7Yy02LjUzLDAtMTAuMTQtMy41OC0xMC4xNC0xMC4wNWMwLTEzLjMyLDAtMjYuNjMsMC0zOS45NWMwLTYuNDcsMy42MS0xMC4wNCwxMC4xNC0xMC4wNEM1OC4yNCwyLjY0LDc1Ljg3LDIuNjUsOTMuNDksMi42NXomIzEwOyYjOTsmIzk7IE05My41MSw2Ni42OGMyLjA1LTIuNzMsNC01LjE3LDUuNzctNy43M2MxLjE1LTEuNjYsMi41Mi0yLjMyLDQuNTYtMi4zMWMxNC4xOSwwLjA3LDI4LjM5LDAuMDQsNDIuNTksMC4wNCYjMTA7JiM5OyYjOTtjMy4xOCwwLDQuMTItMC45NCw0LjEyLTQuMTNjMC0xMy4yNiwwLTI2LjUxLDAtMzkuNzdjMC0zLjE5LTAuOTQtNC4xMi00LjEzLTQuMTJjLTM1LjI3LDAtNzAuNTQsMC0xMDUuODEsMCYjMTA7JiM5OyYjOTtjLTMuMiwwLTQuMTMsMC45My00LjEzLDQuMTJjMCwxMy4xOSwwLDI2LjM5LDAsMzkuNThjMCwzLjQ1LDAuODcsNC4zMiw0LjMxLDQuMzNjMTQuMiwwLDI4LjM5LDAuMDMsNDIuNTktMC4wMyYjMTA7JiM5OyYjOTtjMS44OC0wLjAxLDMuMTgsMC42MSw0LjI2LDIuMTRDODkuNDQsNjEuNCw5MS40Miw2My44OSw5My41MSw2Ni42OHoiIGNsYXNzPSJzdDIiLz4mI3hhOwk8bGluZWFyR3JhZGllbnQgeTI9IjEyNS43MjI5IiB4Mj0iMTgzLjU2MzQiIHkxPSIxMjUuNzIyOSIgeDE9IjE0MS42NTQ2IiBncmFkaWVudFVuaXRzPSJ1c2VyU3BhY2VPblVzZSIgaWQ9IlNWR0lEXzRfIj4mI3hhOwkJPHN0b3Agc3R5bGU9InN0b3AtY29sb3I6IzBFQTVFOSIgb2Zmc2V0PSIwIi8+JiN4YTsJCTxzdG9wIHN0eWxlPSJzdG9wLWNvbG9yOiMwMjg0QzciIG9mZnNldD0iMSIvPiYjeGE7CTwvbGluZWFyR3JhZGllbnQ+JiN4YTsJPHBhdGggZD0iTTE1Ni41OSwxMjguNzljMC0yLjE1LDAtMy45NSwwLTUuOTdjNi45MSwwLDEzLjgxLDAsMjAuODQsMGMwLTQuMSwwLTgsMC0xMi4wNGMtMTAuODgsMC0yMS43NCwwLTMyLjc0LDAmIzEwOyYjOTsmIzk7YzAtMi4wMywwLTMuOTMsMC02LjAzYzEwLjg3LDAsMjEuNzcsMCwzMi43NywwYzAtNC4wNiwwLTcuOTEsMC0xMS45N2MtMTEuODgsMC0yMy43OCwwLTM1LjgsMGMwLTIuMSwwLTQsMC02LjAzJiMxMDsmIzk7JiM5O2MyLjkxLDAsNS43NiwwLDguODksMGMwLTAuNzMsMC0xLjMzLDAtMS45MmMwLTQuMjUtMC4wMi04LjUxLDAuMDEtMTIuNzZjMC4wMi0yLjIyLDEuMTQtMy4zNCwzLjM2LTMuMzcmIzEwOyYjOTsmIzk7YzMuNjktMC4wNCw3LjM4LTAuMDMsMTEuMDcsMGMyLjQ1LDAuMDIsMy41NSwxLjExLDMuNTYsMy41NmMwLjAyLDQuNzQsMC4wMSw5LjQ4LDAuMDEsMTQuNDVjMy42OCwwLDcuMjIsMCwxMC43NiwwJiMxMDsmIzk7JiM5O2MzLjM0LDAsNC4yNSwwLjksNC4yNSw0LjJjMCwyMy4yLDAsNDYuNCwwLDY5LjYxYzAsMy4zMy0wLjksNC4yNC00LjIsNC4yNWMtMy41LDAtNywwLTEwLjgxLDBjMCwwLjY1LDAsMS4yNCwwLDEuODMmIzEwOyYjOTsmIzk7YzAsNC4xMywwLjAxLDguMjYsMCwxMi4zOGMtMC4wMSwyLjcyLTEuMDQsMy43OC0zLjcxLDMuNzljLTMuNSwwLjAyLTcsMC4wMi0xMC41MSwwYy0yLjc3LTAuMDEtMy43OC0xLjA2LTMuNzktMy45JiMxMDsmIzk7JiM5O2MtMC4wMS00LjYyLDAtOS4yNCwwLTE0Yy0xLTAuMDctMS45LTAuMTMtMi45LTAuMmMwLTEuOTEsMC0zLjc3LDAtNS44M2M5Ljg3LDAsMTkuNzcsMCwyOS43OSwwYzAtNC4xLDAtOCwwLTEyLjA0JiMxMDsmIzk7JiM5O2MtNi45LDAtMTMuNzUsMC0yMC43NSwwYzAtMi4wMywwLTMuOTMsMC02LjAzYzYuODksMCwxMy43OSwwLDIwLjc4LDBjMC00LjA2LDAtNy45MSwwLTExLjk3JiMxMDsmIzk7JiM5O0MxNzAuNTcsMTI4Ljc5LDE2My42NywxMjguNzksMTU2LjU5LDEyOC43OXoiIGNsYXNzPSJzdDMiLz4mI3hhOwk8bGluZWFyR3JhZGllbnQgeTI9Ijg1LjE2NiIgeDI9IjQyLjQ3NjMiIHkxPSI4NS4xNjYiIHgxPSIyNC40NTU0IiBncmFkaWVudFVuaXRzPSJ1c2VyU3BhY2VPblVzZSIgaWQ9IlNWR0lEXzVfIj4mI3hhOwkJPHN0b3Agc3R5bGU9InN0b3AtY29sb3I6IzBFQTVFOSIgb2Zmc2V0PSIwIi8+JiN4YTsJCTxzdG9wIHN0eWxlPSJzdG9wLWNvbG9yOiMwMjg0QzciIG9mZnNldD0iMSIvPiYjeGE7CTwvbGluZWFyR3JhZGllbnQ+JiN4YTsJPHBhdGggZD0iTTQyLjQ3LDEwMS42NGMtNi4xLDAtMTEuOTQsMC0xNy45MSwwYy0wLjA0LTAuNi0wLjEtMS4xNC0wLjEtMS42OWMtMC4wMS03LjI0LTAuMDItMTQuNDgsMC0yMS43MiYjMTA7JiM5OyYjOTtjMC4wMS01LjQ1LDMuODItOS41LDguOTMtOS41NGM1LjIxLTAuMDQsOS4wNiw0LjAxLDkuMDgsOS41N0M0Mi40OCw4Niw0Mi40Nyw5My43Myw0Mi40NywxMDEuNjR6IiBjbGFzcz0ic3Q0Ii8+JiN4YTsJPGxpbmVhckdyYWRpZW50IHkyPSIzMi43OTUyIiB4Mj0iOTMuNDk2NyIgeTE9IjMyLjc5NTIiIHgxPSI0NS40MzI4IiBncmFkaWVudFVuaXRzPSJ1c2VyU3BhY2VPblVzZSIgaWQ9IlNWR0lEXzZfIj4mI3hhOwkJPHN0b3Agc3R5bGU9InN0b3AtY29sb3I6IzBFQTVFOSIgb2Zmc2V0PSIwIi8+JiN4YTsJCTxzdG9wIHN0eWxlPSJzdG9wLWNvbG9yOiMwMjg0QzciIG9mZnNldD0iMSIvPiYjeGE7CTwvbGluZWFyR3JhZGllbnQ+JiN4YTsJPHBhdGggZD0iTTY5LjQ1LDUwLjk4Yy0zLjU5LTAuMzMtNy4yOC0wLjI1LTEwLjc1LTEuMDhjLTguNDgtMi4wMy0xNC4xOC0xMC41OS0xMy4xNC0xOS4xMiYjMTA7JiM5OyYjOTtjMS4wOS04Ljk3LDguMzctMTUuODksMTcuMi0xNi4wNmM1LjMtMC4xLDEwLjY2LTAuMjksMTUuOSwwLjM2YzguOTQsMS4xMSwxNS4zMiw5LjUzLDE0LjgxLDE4LjczYy0wLjQ5LDktOC4wNCwxNi40Ny0xNy4wNiwxNi44MyYjMTA7JiM5OyYjOTtjLTIuMzEsMC4wOS00LjYyLDAuMDEtNi45NCwwLjAxQzY5LjQ2LDUwLjc2LDY5LjQ2LDUwLjg3LDY5LjQ1LDUwLjk4eiBNODYuOTksMjkuNjFjLTEuMjQtNC43Ny01LjM2LTguNDItOS4yNS04LjUzJiMxMDsmIzk7JiM5O2MxLjI3LDIuNzYsMi41Nyw1LjU5LDMuOTIsOC41M0M4My4yNywyOS42MSw4NS4wNywyOS42MSw4Ni45OSwyOS42MXogTTg2Ljk5LDM1Ljc1Yy0xLjk3LDAtMy44MiwwLTUuMzIsMCYjMTA7JiM5OyYjOTtjLTEuMzksMy0yLjY4LDUuNzktMy45Myw4LjQ5QzgxLjU4LDQ0LjE3LDg1LjcyLDQwLjUyLDg2Ljk5LDM1Ljc1eiIgY2xhc3M9InN0NSIvPiYjeGE7CTxsaW5lYXJHcmFkaWVudCB5Mj0iMzIuMjI4NiIgeDI9IjE0NC41NDI1IiB5MT0iMzIuMjI4NiIgeDE9Ijk3Ljc2NzQiIGdyYWRpZW50VW5pdHM9InVzZXJTcGFjZU9uVXNlIiBpZD0iU1ZHSURfN18iPiYjeGE7CQk8c3RvcCBzdHlsZT0ic3RvcC1jb2xvcjojMEVBNUU5IiBvZmZzZXQ9IjAiLz4mI3hhOwkJPHN0b3Agc3R5bGU9InN0b3AtY29sb3I6IzAyODRDNyIgb2Zmc2V0PSIxIi8+JiN4YTsJPC9saW5lYXJHcmFkaWVudD4mI3hhOwk8cGF0aCBkPSJNMTIzLjE1LDMxLjI2YzMuNjUtMy42NSw3LjA4LTcuMDcsMTAuNTUtMTAuNTVjLTIuMjQsMC00LjYyLDAtNy4wOSwwYzAtMi4wOCwwLTMuOTMsMC02LjA1JiMxMDsmIzk7JiM5O2MyLjAyLDAsNC4wNiwwLDYuMDksMGMyLjg4LDAsNS43NS0wLjA0LDguNjMsMC4wMmMxLjkyLDAuMDMsMy4xNCwxLjEzLDMuMTcsMi45OGMwLjA2LDQuOTMsMC4wMiw5Ljg1LDAuMDIsMTQuOSYjMTA7JiM5OyYjOTtjLTIuMDEsMC0zLjkxLDAtNS45NSwwYzAtMi40LDAtNC43NSwwLTcuNDZjLTAuNjUsMC41NS0xLjA3LDAuODYtMS40MywxLjIyYy0zLjYzLDMuNjItNy4yNCw3LjI1LTEwLjg4LDEwLjg2JiMxMDsmIzk7JiM5O2MtMi4wNCwyLjAzLTMuNDMsMi4wNC01LjQzLDAuMDRjLTEuMDUtMS4wNS0yLjA0LTIuMTctMy4wNy0zLjI4Yy01LjQsNS40Mi0xMC41OSwxMC42My0xNS44MywxNS44OGMtMS41LTEuNjQtMi43OS0zLjA0LTQuMTctNC41NSYjMTA7JiM5OyYjOTtjMC4xMi0wLjEzLDAuNDctMC41NiwwLjg2LTAuOTVjNS4zNC01LjM1LDEwLjY5LTEwLjcsMTYuMDQtMTYuMDRjMi4xOS0yLjE5LDMuNTItMi4yLDUuNywwJiMxMDsmIzk7JiM5O0MxMjEuMzcsMjkuMjgsMTIyLjMxLDMwLjM1LDEyMy4xNSwzMS4yNnoiIGNsYXNzPSJzdDYiLz4mI3hhOzwvZz4mI3hhOzwvc3ZnPg==;" vertex="1" parent="87GCZqK9oe9EleAZIWvs-48">
          <mxGeometry width="60" height="60" as="geometry" />
        </mxCell>
        <mxCell id="87GCZqK9oe9EleAZIWvs-47" value="Repuesto" style="rounded=0;whiteSpace=wrap;html=1;fillColor=none;strokeColor=none;" vertex="1" parent="87GCZqK9oe9EleAZIWvs-48">
          <mxGeometry y="59.995789473684226" width="60" height="23.684210526315788" as="geometry" />
        </mxCell>
        <mxCell id="87GCZqK9oe9EleAZIWvs-51" value="" style="group" vertex="1" connectable="0" parent="1">
          <mxGeometry x="60" y="640" width="60" height="83.68000000000006" as="geometry" />
        </mxCell>
        <mxCell id="87GCZqK9oe9EleAZIWvs-49" value="" style="shape=image;verticalLabelPosition=bottom;labelBackgroundColor=default;verticalAlign=top;aspect=fixed;imageAspect=0;image=data:image/svg+xml,PHN2ZyB4bWxuczp4bGluaz0iaHR0cDovL3d3dy53My5vcmcvMTk5OS94bGluayIgeG1sbnM9Imh0dHA6Ly93d3cudzMub3JnLzIwMDAvc3ZnIiB4bWw6c3BhY2U9InByZXNlcnZlIiBzdHlsZT0iZW5hYmxlLWJhY2tncm91bmQ6bmV3IDAgMCAxODYuNCAxODYuNDsiIHZpZXdCb3g9IjAgMCAxODYuNCAxODYuNCIgeT0iMHB4IiB4PSIwcHgiIGlkPSJDYXBhXzEiIHZlcnNpb249IjEuMSI+JiN4YTs8c3R5bGUgdHlwZT0idGV4dC9jc3MiPiYjeGE7CS5zdDB7ZmlsbDp1cmwoI1NWR0lEXzFfKTt9JiN4YTsJLnN0MXtmaWxsOnVybCgjU1ZHSURfMl8pO30mI3hhOwkuc3Qye2ZpbGw6dXJsKCNTVkdJRF8zXyk7fSYjeGE7CS5zdDN7ZmlsbDp1cmwoI1NWR0lEXzRfKTt9JiN4YTsJLnN0NHtmaWxsOnVybCgjU1ZHSURfNV8pO30mI3hhOwkuc3Q1e2ZpbGw6dXJsKCNTVkdJRF82Xyk7fSYjeGE7CS5zdDZ7ZmlsbDp1cmwoI1NWR0lEXzdfKTt9JiN4YTs8L3N0eWxlPiYjeGE7PGc+JiN4YTsJPGxpbmVhckdyYWRpZW50IHkyPSIxMzkuNDg5NCIgeDI9IjkzLjI0MzMiIHkxPSI0NC45NTE5IiB4MT0iOTMuMjQzMyIgZ3JhZGllbnRVbml0cz0idXNlclNwYWNlT25Vc2UiIGlkPSJTVkdJRF8xXyI+JiN4YTsJCTxzdG9wIHN0eWxlPSJzdG9wLWNvbG9yOiMwRUE1RTkiIG9mZnNldD0iMCIvPiYjeGE7CQk8c3RvcCBzdHlsZT0ic3RvcC1jb2xvcjojMDI4NEM3IiBvZmZzZXQ9IjEiLz4mI3hhOwk8L2xpbmVhckdyYWRpZW50PiYjeGE7CTxwYXRoIGQ9Ik0xNjQuMjcsODMuM2MxLjA2LTIuNCwxLjk1LTQuNDIsMi44Ni02LjQzYzEuMDQtMi4yOCwyLjIzLTIuOTMsNC42Ny0yLjUyYzIuOTcsMC41LDUuOTQsMSw4LjksMS41NCYjMTA7JiM5OyYjOTtjMi40NywwLjQ1LDMuNTgsMS43OCwzLjY4LDQuMzFjMC4xMiwzLjE5LTAuNzcsNC43MS0zLjM2LDUuMzNjLTQuMywxLjA0LTguNjIsMS45OC0xMy4xMSwzYzAuMywwLjU0LDAuNTMsMSwwLjgxLDEuNDMmIzEwOyYjOTsmIzk7YzEuODgsMi44OSwzLjc4LDUuNzYsNS42NSw4LjY1YzIuODMsNC4zNyw0LjY0LDkuMTgsNC43OCwxNC4zNmMwLjIzLDguNzksMC4wNiwxNy41OSwwLjA2LDI2LjUyYy01Ny4yOSwwLTExNC41NSwwLTE3MS45MSwwJiMxMDsmIzk7JiM5O2MtMC4wNC0wLjQ2LTAuMTEtMC44Ny0wLjExLTEuMjhjLTAuMDEtNy42OS0wLjAzLTE1LjM4LDAuMDEtMjMuMDdjMC4wMy02LjI2LDEuODctMTEuOTcsNS4zMi0xNy4xOWMyLjAzLTMuMDcsNC4wMy02LjE1LDYuMTMtOS4zNiYjMTA7JiM5OyYjOTtjLTQuNDYtMS4wMy04LjcxLTItMTIuOTQtMy4wMWMtMi44LTAuNjYtMy43MS0yLjAyLTMuNjEtNS4zYzAuMDgtMi42MywxLjE3LTMuOTQsMy43Ny00LjQxYzMuMDItMC41NSw2LjA1LTEuMDksOS4wOC0xLjYxJiMxMDsmIzk7JiM5O2MxLjk5LTAuMzQsMy4zMSwwLjMyLDQuMiwyLjE3YzEuMDEsMi4xLDEuOTMsNC4yNSwzLjA3LDYuNzdjMC42My0xLjExLDEuMi0xLjkzLDEuNTktMi44M2MyLjQ1LTUuNyw1LjAzLTExLjM1LDcuMjQtMTcuMTUmIzEwOyYjOTsmIzk7YzMuNTYtOS4zNywxMC4yNy0xNC4xNCwyMC4xNC0xNS40M2MxOS4xNi0yLjUsMzguMzctMy41MSw1Ny42My0yLjRjMTAuMTEsMC41OSwyMC4yMiwxLjcyLDMwLjI1LDMuMTYmIzEwOyYjOTsmIzk7YzcuMTgsMS4wMywxMi4yNSw1LjUxLDE1LjIsMTIuMTNjMi44OCw2LjQ1LDUuNTQsMTMsOC4zMywxOS40OUMxNjMuMDIsODEuMTYsMTYzLjYxLDgyLjA3LDE2NC4yNyw4My4zeiBNMzAuODQsNzguNzYmIzEwOyYjOTsmIzk7YzQxLjc2LDAsODMuMTMsMCwxMjQuNzksMGMtMi42MS01Ljk2LTQuOTEtMTEuNzktNy43LTE3LjM4Yy0yLjA2LTQuMTQtNS44My02LjY0LTEwLjQtNy4xN2MtMTAuMjYtMS4xOS0yMC41My0yLjQtMzAuODQtMi45NyYjMTA7JiM5OyYjOTtjLTE5LjE1LTEuMDUtMzguMjUtMC4wNC01Ny4yMywyLjg1Yy00LjcyLDAuNzItOC42NywyLjkyLTEwLjgzLDcuMTVDMzUuNzcsNjYuODcsMzMuNDcsNzIuNzcsMzAuODQsNzguNzZ6IE01NC42NSwxMDkuNiYjMTA7JiM5OyYjOTtjMi42OCw1LjY3LDUuMDgsMTAuODQsNy41OSwxNS45NmMwLjIzLDAuNDcsMS4xNSwwLjgyLDEuNzgsMC44NmMzLjk5LDAuMjksNy45OCwwLjUsMTEuOTcsMC42OWM2LjMyLDAuMywxMi42NiwwLjkyLDE4Ljk4LDAuNzgmIzEwOyYjOTsmIzk7YzkuMjItMC4yLDE4LjQyLTAuOTMsMjcuNjMtMS41NGMwLjctMC4wNSwxLjYzLTAuNzksMS45Ni0xLjQ1YzIuMTctNC4zNCw0LjItOC43NSw2LjI3LTEzLjEzYzAuMjctMC41NywwLjQ5LTEuMTUsMC45MS0yLjEzJiMxMDsmIzk7JiM5O0MxMDUuOTQsMTEyLjgyLDgwLjU0LDExMi44Miw1NC42NSwxMDkuNnogTTEzNS40NSwxMjMuNTNjMC4xNywwLjE2LDAuMzQsMC4zMiwwLjUxLDAuNDljMi45MS0wLjQxLDUuODItMC44MSw4LjczLTEuMjImIzEwOyYjOTsmIzk7YzUuNDEtMC43NiwxMC44Mi0xLjUxLDE2LjI0LTIuMjhjMi4yNy0wLjMyLDQuMTQtMS4zMSw1LjA0LTMuNTFjMS4wOS0yLjY1LDEuMTItNS4zOCwwLjE1LTguMWMtMC41Ni0xLjU4LTEuNy0yLjQyLTMuMzgtMi4yOCYjMTA7JiM5OyYjOTtjLTUuMzksMC40NC0xMC43NywwLjg5LTE2LjE1LDEuNDVjLTAuNzYsMC4wOC0xLjc0LDAuNTctMi4xNCwxLjE4QzE0MS4zOCwxMTMuOTcsMTM4LjQzLDExOC43NiwxMzUuNDUsMTIzLjUzeiBNNTEuMDYsMTI0LjA1JiMxMDsmIzk7JiM5O2MtMS43OS0zLjE3LTMuMjktNS45Ny00LjkzLTguNjljLTEuMjYtMi4xLTIuNjEtNC4xNy00LjEtNi4xMWMtMC40OS0wLjY0LTEuNS0xLjEyLTIuMzMtMS4yMWMtNC44My0wLjUyLTkuNjctMC44OC0xNC41LTEuMzMmIzEwOyYjOTsmIzk7Yy0zLjU2LTAuMzMtNC45MywwLjYtNS4zNyw0LjEzYy0wLjYxLDQuOTYsMC42NSw5LjUzLDcuMTgsOS44NWMyLjkzLDAuMTQsNS44NCwwLjgyLDguNzUsMS4yMyYjMTA7JiM5OyYjOTtDNDAuNjksMTIyLjYyLDQ1LjYxLDEyMy4yOSw1MS4wNiwxMjQuMDV6IiBjbGFzcz0ic3QwIi8+JiN4YTsJPGxpbmVhckdyYWRpZW50IHkyPSIxNjYuNzM3NCIgeDI9IjkzLjI1MTYiIHkxPSIxNDUuNzAzMSIgeDE9IjkzLjI1MTYiIGdyYWRpZW50VW5pdHM9InVzZXJTcGFjZU9uVXNlIiBpZD0iU1ZHSURfMl8iPiYjeGE7CQk8c3RvcCBzdHlsZT0ic3RvcC1jb2xvcjojMEVBNUU5IiBvZmZzZXQ9IjAiLz4mI3hhOwkJPHN0b3Agc3R5bGU9InN0b3AtY29sb3I6IzAyODRDNyIgb2Zmc2V0PSIxIi8+JiN4YTsJPC9saW5lYXJHcmFkaWVudD4mI3hhOwk8cGF0aCBkPSJNMTc5LjIyLDE0NS43YzAuMjUsNC41Ni0wLjA1LDguODctMi40NiwxMi43NmMtMy41OSw1LjgxLTkuMjQsNy43Ny0xNS42Niw4LjIzYy0wLjgsMC4wNi0xLjYsMC4wNC0yLjQsMC4wNCYjMTA7JiM5OyYjOTtjLTQzLjY0LDAtODcuMjcsMC4wMy0xMzAuOTEtMC4wNWMtMy4wMy0wLjAxLTYuMTgtMC40LTkuMDctMS4yOGMtNi45MS0yLjA4LTExLjA1LTcuNzctMTEuNDgtMTUuMTMmIzEwOyYjOTsmIzk7Yy0wLjA5LTEuNDYtMC4wMS0yLjk0LTAuMDEtNC41N0M2NC41NSwxNDUuNywxMjEuODEsMTQ1LjcsMTc5LjIyLDE0NS43eiIgY2xhc3M9InN0MSIvPiYjeGE7CTxsaW5lYXJHcmFkaWVudCB5Mj0iMTg0Ljg1OTIiIHgyPSIxNjcuNTIxNiIgeTE9IjE2NS4wMTQiIHgxPSIxNjcuNTIxNiIgZ3JhZGllbnRVbml0cz0idXNlclNwYWNlT25Vc2UiIGlkPSJTVkdJRF8zXyI+JiN4YTsJCTxzdG9wIHN0eWxlPSJzdG9wLWNvbG9yOiMwRUE1RTkiIG9mZnNldD0iMCIvPiYjeGE7CQk8c3RvcCBzdHlsZT0ic3RvcC1jb2xvcjojMDI4NEM3IiBvZmZzZXQ9IjEiLz4mI3hhOwk8L2xpbmVhckdyYWRpZW50PiYjeGE7CTxwYXRoIGQ9Ik0xNTUuODYsMTcyLjUyYzguODEsMC44LDE2LjYxLTEuMDMsMjMuMzUtNy41MWMwLDQuMjEsMCw3Ljg2LDAsMTEuNTJjMCwxLjQxLDAuMDYsMi44My0wLjAzLDQuMjQmIzEwOyYjOTsmIzk7Yy0wLjE2LDIuNDktMS42OSw0LjAyLTQuMTQsNC4wNGMtNS4wNCwwLjA1LTEwLjA5LDAuMDUtMTUuMTMsMGMtMi4yNS0wLjAyLTMuODctMS4zNi00LTMuNTMmIzEwOyYjOTsmIzk7QzE1NS43MywxNzguNDksMTU1Ljg2LDE3NS42NiwxNTUuODYsMTcyLjUyeiIgY2xhc3M9InN0MiIvPiYjeGE7CTxsaW5lYXJHcmFkaWVudCB5Mj0iMTg0Ljg2MDYiIHgyPSIxOC43ODY0IiB5MT0iMTY0Ljg5NjciIHgxPSIxOC43ODY0IiBncmFkaWVudFVuaXRzPSJ1c2VyU3BhY2VPblVzZSIgaWQ9IlNWR0lEXzRfIj4mI3hhOwkJPHN0b3Agc3R5bGU9InN0b3AtY29sb3I6IzBFQTVFOSIgb2Zmc2V0PSIwIi8+JiN4YTsJCTxzdG9wIHN0eWxlPSJzdG9wLWNvbG9yOiMwMjg0QzciIG9mZnNldD0iMSIvPiYjeGE7CTwvbGluZWFyR3JhZGllbnQ+JiN4YTsJPHBhdGggZD0iTTcuMTQsMTY0LjljMy4zOCwzLjI0LDYuODUsNS42NSwxMC45Nyw2LjU2YzMuOTcsMC44Nyw4LjA3LDEuMTIsMTIuMywxLjY3YzAsMi41MSwwLjEsNS4zMy0wLjAzLDguMTMmIzEwOyYjOTsmIzk7Yy0wLjEsMi4wMy0xLjcyLDMuNTMtMy44LDMuNTZjLTUuMjIsMC4wNy0xMC40NCwwLjA4LTE1LjY2LDBjLTIuMTUtMC4wMy0zLjcyLTEuNjQtMy43NS0zLjc5QzcuMDksMTc1LjgsNy4xNCwxNzAuNTksNy4xNCwxNjQuOXoiIGNsYXNzPSJzdDMiLz4mI3hhOwk8bGluZWFyR3JhZGllbnQgeTI9IjI5LjAwNzIiIHgyPSIxMjUuMzUyMiIgeTE9IjEuOTAyNSIgeDE9IjEyNS4zNTIyIiBncmFkaWVudFVuaXRzPSJ1c2VyU3BhY2VPblVzZSIgaWQ9IlNWR0lEXzVfIj4mI3hhOwkJPHN0b3Agc3R5bGU9InN0b3AtY29sb3I6IzBFQTVFOSIgb2Zmc2V0PSIwIi8+JiN4YTsJCTxzdG9wIHN0eWxlPSJzdG9wLWNvbG9yOiMwMjg0QzciIG9mZnNldD0iMSIvPiYjeGE7CTwvbGluZWFyR3JhZGllbnQ+JiN4YTsJPHBhdGggZD0iTTExMS44NywxNS4yOWM3LjEtMS41MSwxMS41MS02LjA0LDEzLjMzLTEzLjM5YzEuODcsNy4yNiw2LjE3LDExLjg2LDEzLjY0LDEzLjY5JiMxMDsmIzk7JiM5O2MtNy4zMSwxLjk0LTExLjg5LDYuMzgtMTMuMywxMy40MmMtMS43Mi0yLjkxLTIuOTctNi4yMy01LjI1LTguNTNDMTE4LjA2LDE4LjIzLDExNC43OSwxNy4wMiwxMTEuODcsMTUuMjl6IiBjbGFzcz0ic3Q0Ii8+JiN4YTsJPGxpbmVhckdyYWRpZW50IHkyPSIyNS43OTk5IiB4Mj0iMTczLjMwOCIgeTE9IjUuMTE1NSIgeDE9IjE3My4zMDgiIGdyYWRpZW50VW5pdHM9InVzZXJTcGFjZU9uVXNlIiBpZD0iU1ZHSURfNl8iPiYjeGE7CQk8c3RvcCBzdHlsZT0ic3RvcC1jb2xvcjojMEVBNUU5IiBvZmZzZXQ9IjAiLz4mI3hhOwkJPHN0b3Agc3R5bGU9InN0b3AtY29sb3I6IzAyODRDNyIgb2Zmc2V0PSIxIi8+JiN4YTsJPC9saW5lYXJHcmFkaWVudD4mI3hhOwk8cGF0aCBkPSJNMTczLjcyLDUuMTJjMS4yMSw1Ljc1LDQuNTQsOS4wNyw5LjkyLDEwLjI0Yy0yLjI5LDEuMzYtNC43NSwyLjI5LTYuNDQsMy45OWMtMS42OCwxLjY5LTIuNiw0LjE1LTMuOTYsNi40NiYjMTA7JiM5OyYjOTtjLTEuMS01LjQzLTQuNTYtOC43My0xMC4yNy0xMC4wNUMxNjkuNzIsMTIuNzIsMTY5LjcyLDEyLjcyLDE3My43Miw1LjEyeiIgY2xhc3M9InN0NSIvPiYjeGE7CTxsaW5lYXJHcmFkaWVudCB5Mj0iNDQuMDkxNyIgeDI9IjE1NS4xNTk4IiB5MT0iMjMuNjM2OSIgeDE9IjE1NS4xNTk4IiBncmFkaWVudFVuaXRzPSJ1c2VyU3BhY2VPblVzZSIgaWQ9IlNWR0lEXzdfIj4mI3hhOwkJPHN0b3Agc3R5bGU9InN0b3AtY29sb3I6IzBFQTVFOSIgb2Zmc2V0PSIwIi8+JiN4YTsJCTxzdG9wIHN0eWxlPSJzdG9wLWNvbG9yOiMwMjg0QzciIG9mZnNldD0iMSIvPiYjeGE7CTwvbGluZWFyR3JhZGllbnQ+JiN4YTsJPHBhdGggZD0iTTE1NS4wMywyMy42NGMxLjQyLDUuNTksNC44Myw4LjkzLDEwLjM3LDEwLjM2Yy01LjU4LDEuMzUtOC45Miw0LjctMTAuMSwxMC4xYy0xLjMzLTIuMjQtMi4yNC00LjcxLTMuOTMtNi40JiMxMDsmIzk7JiM5O2MtMS43MS0xLjcxLTQuMTktMi42NC02LjQ2LTRDMTUwLjI0LDMyLjU4LDE1My42NSwyOS4yMiwxNTUuMDMsMjMuNjR6IiBjbGFzcz0ic3Q2Ii8+JiN4YTs8L2c+JiN4YTs8L3N2Zz4=;" vertex="1" parent="87GCZqK9oe9EleAZIWvs-51">
          <mxGeometry width="60" height="60" as="geometry" />
        </mxCell>
        <mxCell id="87GCZqK9oe9EleAZIWvs-50" value="Vehículo" style="rounded=0;whiteSpace=wrap;html=1;fillColor=none;strokeColor=none;" vertex="1" parent="87GCZqK9oe9EleAZIWvs-51">
          <mxGeometry y="59.995789473684226" width="60" height="23.684210526315788" as="geometry" />
        </mxCell>
        <mxCell id="87GCZqK9oe9EleAZIWvs-52" style="edgeStyle=orthogonalEdgeStyle;rounded=0;orthogonalLoop=1;jettySize=auto;html=1;" edge="1" parent="1" source="87GCZqK9oe9EleAZIWvs-17" target="87GCZqK9oe9EleAZIWvs-40">
          <mxGeometry relative="1" as="geometry" />
        </mxCell>
        <mxCell id="87GCZqK9oe9EleAZIWvs-53" value="Pertecece a" style="rounded=0;whiteSpace=wrap;html=1;fillColor=none;strokeColor=none;" vertex="1" parent="1">
          <mxGeometry x="320" y="245" width="70" height="23.68" as="geometry" />
        </mxCell>
        <mxCell id="87GCZqK9oe9EleAZIWvs-54" style="edgeStyle=orthogonalEdgeStyle;rounded=0;orthogonalLoop=1;jettySize=auto;html=1;exitX=0.5;exitY=0;exitDx=0;exitDy=0;entryX=0.5;entryY=1;entryDx=0;entryDy=0;" edge="1" parent="1" source="87GCZqK9oe9EleAZIWvs-21" target="87GCZqK9oe9EleAZIWvs-41">
          <mxGeometry relative="1" as="geometry" />
        </mxCell>
        <mxCell id="87GCZqK9oe9EleAZIWvs-55" value="Pertecece a" style="rounded=0;whiteSpace=wrap;html=1;fillColor=none;strokeColor=none;rotation=-90;" vertex="1" parent="1">
          <mxGeometry x="427" y="380" width="70" height="23.68" as="geometry" />
        </mxCell>
        <mxCell id="87GCZqK9oe9EleAZIWvs-56" style="edgeStyle=orthogonalEdgeStyle;rounded=0;orthogonalLoop=1;jettySize=auto;html=1;exitX=0;exitY=0.5;exitDx=0;exitDy=0;entryX=1;entryY=0.5;entryDx=0;entryDy=0;" edge="1" parent="1" source="87GCZqK9oe9EleAZIWvs-17" target="87GCZqK9oe9EleAZIWvs-43">
          <mxGeometry relative="1" as="geometry" />
        </mxCell>
        <mxCell id="87GCZqK9oe9EleAZIWvs-57" value="Registra/Gestiona" style="rounded=0;whiteSpace=wrap;html=1;fillColor=none;strokeColor=none;" vertex="1" parent="1">
          <mxGeometry x="150" y="245" width="70" height="23.68" as="geometry" />
        </mxCell>
        <mxCell id="87GCZqK9oe9EleAZIWvs-59" value="" style="endArrow=classicThin;html=1;rounded=0;entryX=0.9;entryY=1.014;entryDx=0;entryDy=0;entryPerimeter=0;endFill=1;startArrow=oval;startFill=1;" edge="1" parent="1" target="87GCZqK9oe9EleAZIWvs-18">
          <mxGeometry width="50" height="50" relative="1" as="geometry">
            <mxPoint x="450" y="420" as="sourcePoint" />
            <mxPoint x="410" y="370" as="targetPoint" />
          </mxGeometry>
        </mxCell>
        <mxCell id="87GCZqK9oe9EleAZIWvs-60" value="Registra/Gestiona" style="rounded=0;whiteSpace=wrap;html=1;fillColor=none;strokeColor=none;rotation=30;" vertex="1" parent="1">
          <mxGeometry x="338" y="352.32" width="70" height="23.68" as="geometry" />
        </mxCell>
        <mxCell id="87GCZqK9oe9EleAZIWvs-61" value="Asigna" style="rounded=0;whiteSpace=wrap;html=1;fillColor=none;strokeColor=none;rotation=30;" vertex="1" parent="1">
          <mxGeometry x="327" y="361" width="70" height="23.68" as="geometry" />
        </mxCell>
        <mxCell id="87GCZqK9oe9EleAZIWvs-62" style="edgeStyle=orthogonalEdgeStyle;rounded=0;orthogonalLoop=1;jettySize=auto;html=1;exitX=0;exitY=0.75;exitDx=0;exitDy=0;entryX=1;entryY=0.75;entryDx=0;entryDy=0;endArrow=classicThin;endFill=1;" edge="1" parent="1" source="87GCZqK9oe9EleAZIWvs-21" target="87GCZqK9oe9EleAZIWvs-27">
          <mxGeometry relative="1" as="geometry" />
        </mxCell>
        <mxCell id="87GCZqK9oe9EleAZIWvs-63" value="Consulta/Gestiona" style="rounded=0;whiteSpace=wrap;html=1;fillColor=none;strokeColor=none;" vertex="1" parent="1">
          <mxGeometry x="333" y="464.9957894736842" width="60" height="23.684210526315788" as="geometry" />
        </mxCell>
        <mxCell id="87GCZqK9oe9EleAZIWvs-64" style="edgeStyle=orthogonalEdgeStyle;rounded=0;orthogonalLoop=1;jettySize=auto;html=1;exitX=0.5;exitY=1;exitDx=0;exitDy=0;entryX=0.5;entryY=1;entryDx=0;entryDy=0;endArrow=classicThin;endFill=1;" edge="1" parent="1" source="87GCZqK9oe9EleAZIWvs-25" target="87GCZqK9oe9EleAZIWvs-34">
          <mxGeometry relative="1" as="geometry" />
        </mxCell>
        <mxCell id="87GCZqK9oe9EleAZIWvs-65" value="Registra/ Gestiona" style="rounded=0;whiteSpace=wrap;html=1;fillColor=default;strokeColor=none;" vertex="1" parent="1">
          <mxGeometry x="164" y="519.9957894736842" width="60" height="23.684210526315788" as="geometry" />
        </mxCell>
        <mxCell id="87GCZqK9oe9EleAZIWvs-67" value="Genera" style="rounded=0;whiteSpace=wrap;html=1;fillColor=none;strokeColor=none;rotation=45;" vertex="1" parent="1">
          <mxGeometry x="344" y="565.9957894736842" width="60" height="23.684210526315788" as="geometry" />
        </mxCell>
        <mxCell id="87GCZqK9oe9EleAZIWvs-68" style="edgeStyle=orthogonalEdgeStyle;rounded=0;orthogonalLoop=1;jettySize=auto;html=1;exitX=1;exitY=0.75;exitDx=0;exitDy=0;entryX=0;entryY=0.75;entryDx=0;entryDy=0;endArrow=classicThin;endFill=1;" edge="1" parent="1" source="87GCZqK9oe9EleAZIWvs-37" target="87GCZqK9oe9EleAZIWvs-30">
          <mxGeometry relative="1" as="geometry" />
        </mxCell>
        <mxCell id="87GCZqK9oe9EleAZIWvs-69" value="Genera" style="rounded=0;whiteSpace=wrap;html=1;fillColor=none;strokeColor=none;" vertex="1" parent="1">
          <mxGeometry x="333" y="663.9957894736842" width="60" height="23.684210526315788" as="geometry" />
        </mxCell>
        <mxCell id="87GCZqK9oe9EleAZIWvs-70" style="edgeStyle=orthogonalEdgeStyle;rounded=0;orthogonalLoop=1;jettySize=auto;html=1;exitX=0.5;exitY=0;exitDx=0;exitDy=0;entryX=0.5;entryY=0;entryDx=0;entryDy=0;endArrow=classicThin;endFill=1;" edge="1" parent="1" source="87GCZqK9oe9EleAZIWvs-21" target="87GCZqK9oe9EleAZIWvs-33">
          <mxGeometry relative="1" as="geometry" />
        </mxCell>
        <mxCell id="87GCZqK9oe9EleAZIWvs-75" value="" style="endArrow=openThin;html=1;rounded=0;endFill=0;entryX=0;entryY=0;entryDx=0;entryDy=0;shadow=0;exitX=1;exitY=0.5;exitDx=0;exitDy=0;" edge="1" parent="1" source="87GCZqK9oe9EleAZIWvs-93" target="87GCZqK9oe9EleAZIWvs-30">
          <mxGeometry width="50" height="50" relative="1" as="geometry">
            <mxPoint x="320" y="530" as="sourcePoint" />
            <mxPoint x="410" y="585" as="targetPoint" />
          </mxGeometry>
        </mxCell>
        <mxCell id="87GCZqK9oe9EleAZIWvs-76" style="edgeStyle=orthogonalEdgeStyle;rounded=0;orthogonalLoop=1;jettySize=auto;html=1;exitX=1;exitY=0.5;exitDx=0;exitDy=0;entryX=0;entryY=0.75;entryDx=0;entryDy=0;shadow=0;endArrow=openThin;endFill=0;" edge="1" parent="1" source="87GCZqK9oe9EleAZIWvs-33" target="87GCZqK9oe9EleAZIWvs-27">
          <mxGeometry relative="1" as="geometry" />
        </mxCell>
        <mxCell id="87GCZqK9oe9EleAZIWvs-77" value="Solicita/Rechaza" style="rounded=0;whiteSpace=wrap;html=1;fillColor=none;strokeColor=none;" vertex="1" parent="1">
          <mxGeometry x="149" y="451.9957894736842" width="60" height="23.684210526315788" as="geometry" />
        </mxCell>
        <mxCell id="87GCZqK9oe9EleAZIWvs-78" value="" style="endArrow=openThin;html=1;rounded=0;endFill=0;exitX=1;exitY=0;exitDx=0;exitDy=0;entryX=0;entryY=0.25;entryDx=0;entryDy=0;shadow=0;" edge="1" parent="1" source="87GCZqK9oe9EleAZIWvs-34" target="87GCZqK9oe9EleAZIWvs-37">
          <mxGeometry width="50" height="50" relative="1" as="geometry">
            <mxPoint x="110" y="489.0389473684211" as="sourcePoint" />
            <mxPoint x="227" y="611.28" as="targetPoint" />
          </mxGeometry>
        </mxCell>
        <mxCell id="87GCZqK9oe9EleAZIWvs-79" value="Consulta" style="rounded=0;whiteSpace=wrap;html=1;fillColor=none;strokeColor=none;rotation=45;" vertex="1" parent="1">
          <mxGeometry x="164" y="565.9957894736842" width="60" height="23.684210526315788" as="geometry" />
        </mxCell>
        <mxCell id="87GCZqK9oe9EleAZIWvs-81" style="edgeStyle=orthogonalEdgeStyle;rounded=0;orthogonalLoop=1;jettySize=auto;html=1;exitX=0;exitY=0.5;exitDx=0;exitDy=0;entryX=0;entryY=0.75;entryDx=0;entryDy=0;shadow=0;endArrow=openThin;endFill=0;" edge="1" parent="1" source="87GCZqK9oe9EleAZIWvs-33" target="87GCZqK9oe9EleAZIWvs-49">
          <mxGeometry relative="1" as="geometry" />
        </mxCell>
        <mxCell id="87GCZqK9oe9EleAZIWvs-82" value="Registra/Gestiona" style="rounded=0;whiteSpace=wrap;html=1;fillColor=none;strokeColor=none;rotation=-90;" vertex="1" parent="1">
          <mxGeometry y="585.68" width="70" height="23.68" as="geometry" />
        </mxCell>
        <mxCell id="87GCZqK9oe9EleAZIWvs-89" style="edgeStyle=orthogonalEdgeStyle;rounded=0;orthogonalLoop=1;jettySize=auto;html=1;exitX=1;exitY=0.5;exitDx=0;exitDy=0;shadow=0;endArrow=openThin;endFill=0;" edge="1" parent="1">
          <mxGeometry relative="1" as="geometry">
            <mxPoint x="232" y="685" as="targetPoint" />
            <mxPoint x="122" y="685" as="sourcePoint" />
          </mxGeometry>
        </mxCell>
        <mxCell id="87GCZqK9oe9EleAZIWvs-94" value="" style="group" vertex="1" connectable="0" parent="1">
          <mxGeometry x="238" y="440" width="67" height="85.67999999999995" as="geometry" />
        </mxCell>
        <mxCell id="87GCZqK9oe9EleAZIWvs-27" value="" style="shape=image;verticalLabelPosition=bottom;labelBackgroundColor=default;verticalAlign=top;aspect=fixed;imageAspect=0;image=data:image/svg+xml,PHN2ZyB4bWxuczp4bGluaz0iaHR0cDovL3d3dy53My5vcmcvMTk5OS94bGluayIgeG1sbnM9Imh0dHA6Ly93d3cudzMub3JnLzIwMDAvc3ZnIiB4bWw6c3BhY2U9InByZXNlcnZlIiBzdHlsZT0iZW5hYmxlLWJhY2tncm91bmQ6bmV3IDAgMCAxODYuNCAxODYuNDsiIHZpZXdCb3g9IjAgMCAxODYuNCAxODYuNCIgeT0iMHB4IiB4PSIwcHgiIGlkPSJDYXBhXzEiIHZlcnNpb249IjEuMSI+JiN4YTs8c3R5bGUgdHlwZT0idGV4dC9jc3MiPiYjeGE7CS5zdDB7ZmlsbDp1cmwoI1NWR0lEXzFfKTt9JiN4YTsJLnN0MXtmaWxsOnVybCgjU1ZHSURfMl8pO30mI3hhOwkuc3Qye2ZpbGw6dXJsKCNTVkdJRF8zXyk7fSYjeGE7PC9zdHlsZT4mI3hhOzxnPiYjeGE7CTxsaW5lYXJHcmFkaWVudCB5Mj0iMTg1LjgxMzkiIHgyPSIxMTQuNDE5IiB5MT0iMS4wOTQiIHgxPSIxMTQuNDE5IiBncmFkaWVudFVuaXRzPSJ1c2VyU3BhY2VPblVzZSIgaWQ9IlNWR0lEXzFfIj4mI3hhOwkJPHN0b3Agc3R5bGU9InN0b3AtY29sb3I6IzBFQTVFOSIgb2Zmc2V0PSIwIi8+JiN4YTsJCTxzdG9wIHN0eWxlPSJzdG9wLWNvbG9yOiMwMjg0QzciIG9mZnNldD0iMSIvPiYjeGE7CTwvbGluZWFyR3JhZGllbnQ+JiN4YTsJPHBhdGggZD0iTTUxLjY3LDE4NS44MWMwLjA2LTAuNzEsMC4xNy0xLjQyLDAuMTctMi4xNGMwLjAxLTEyLjQ0LDAuMDEtMjQuODgsMC4wMS0zNy4zMmMwLTAuNywwLTEuMzksMC0yLjE4JiMxMDsmIzk7JiM5O2MyMy44Niw4LjkzLDQzLjYxLTMuMjUsNTIuNC0xNS45OWMxMC4wMy0xNC41Myw5Ljk4LTM0LjE5LTAuMS00OC42NGMtOC45LTEyLjc1LTI4LjYtMjQuNzItNTIuMi0xNS44OCYjMTA7JiM5OyYjOTtjLTAuMDMtMC42Mi0wLjA5LTEuMi0wLjA5LTEuNzhjLTAuMDEtNy4yNy0wLjAxLTE0LjU1LDAtMjEuODJjMC4wMS00LjQ5LDItNi40Niw2LjUtNi40NmMzMC4wNCwwLDYwLjA5LDAsOTAuMTMsMCYjMTA7JiM5OyYjOTtjMC43MiwwLDEuNDQsMCwyLjU0LDBjLTAuNDMtMC43OS0wLjc3LTEuMzYtMS4wOC0xLjk2Yy0xLjc4LTMuNTItNC4xLTYuODgtNS4xOS0xMC42MWMtMS43NC01LjkzLDAuMS0xMS4zNCw0LjY0LTE1LjU2JiMxMDsmIzk7JiM5O2M0LjU1LTQuMjMsMTAtNS4zNywxNS45LTMuNTZjNy4yNCwyLjIxLDExLjI0LDcuNTYsMTEuNjUsMTUuMTVjMC4wNSwwLjksMC4wNCwxLjgsMC4wNCwyLjdjMCw1NC41MSwwLDEwOS4wMywwLjAxLDE2My41NCYjMTA7JiM5OyYjOTtjMCwwLjgzLDAuMTEsMS42NiwwLjE3LDIuNUMxMzUuMzMsMTg1LjgxLDkzLjUsMTg1LjgxLDUxLjY3LDE4NS44MXogTTEzMy4zMyw3NS4wNGMtMi41Ni0yLjY5LTQuNy01LjA0LTYuOTYtNy4yOCYjMTA7JiM5OyYjOTtjLTIuMzMtMi4zMS01LjUtMi4yNS03LjY4LDBjLTIuMDksMi4xNS0yLjA2LDUuMzMsMC4xNiw3LjU4YzMuNTQsMy41OSw3LjEsNy4xNiwxMC42OSwxMC43YzIuMywyLjI3LDUuMzcsMi4yNiw3LjY4LTAuMDQmIzEwOyYjOTsmIzk7YzcuMTUtNy4xMSwxNC4yOC0xNC4yNCwyMS4zOS0yMS4zOWMyLjMxLTIuMzIsMi4zNS01LjUzLDAuMTktNy43MWMtMi4yNS0yLjI3LTUuMzgtMi4yLTcuODIsMC4yMSYjMTA7JiM5OyYjOTtjLTQuMjcsNC4yMi04LjUzLDguNDUtMTIuNzYsMTIuNzFDMTM2LjY1LDcxLjM4LDEzNS4xOCw3My4wNSwxMzMuMzMsNzUuMDR6IE0xMzMuMjksMTA3LjQ0Yy0yLjM3LTIuNDktNC40OC00Ljc4LTYuNjctNi45OCYjMTA7JiM5OyYjOTtjLTIuNTItMi41My01LjY4LTIuNTgtNy45NC0wLjIzYy0yLjE2LDIuMjQtMiw1LjM5LDAuNDMsNy44NGMzLjM4LDMuNDEsNi43OCw2LjgsMTAuMTgsMTAuMTljMi41NiwyLjU1LDUuNTQsMi41OSw4LjA3LDAuMDcmIzEwOyYjOTsmIzk7YzcuMDYtNy4wMywxNC4xLTE0LjA4LDIxLjEzLTIxLjE0YzIuNDEtMi40MiwyLjUtNS42MiwwLjI5LTcuODRjLTIuMjYtMi4yNi01LjM3LTIuMTgtNy44MiwwLjIzYy0yLjgyLDIuNzgtNS42NCw1LjU3LTguNDIsOC4zOSYjMTA7JiM5OyYjOTtDMTM5LjU1LDEwMC45OSwxMzYuNTksMTA0LjA1LDEzMy4yOSwxMDcuNDR6IE0xMzMuNzUsMTM5LjU4Yy0wLjU3LTAuMzItMC43LTAuMzYtMC43OC0wLjQ0Yy0yLjE0LTIuMS00LjI3LTQuMjEtNi40My02LjMmIzEwOyYjOTsmIzk7Yy0yLjQ3LTIuNC01LjU4LTIuNDYtNy44Mi0wLjE4Yy0yLjE5LDIuMjMtMi4wNyw1LjQxLDAuMzQsNy44NGMzLjQzLDMuNDUsNi44Niw2Ljg5LDEwLjMxLDEwLjMxYzIuNDcsMi40NSw1LjQ3LDIuNDYsNy45NCwwLjAyJiMxMDsmIzk7JiM5O2MyLjQ4LTIuNDQsNC45My00LjkyLDcuMzktNy4zOGM0LjYzLTQuNjMsOS4yNy05LjI0LDEzLjg3LTEzLjg5YzIuNDYtMi40OCwyLjM3LTUuOTMtMC4xNC04LjA4Yy0yLjIyLTEuOTEtNS4xOC0xLjc1LTcuNDMsMC41MyYjMTA7JiM5OyYjOTtDMTQ1LjIzLDEyNy44NCwxMzkuNDksMTMzLjczLDEzMy43NSwxMzkuNTh6IiBjbGFzcz0ic3QwIi8+JiN4YTsJPGxpbmVhckdyYWRpZW50IHkyPSIxNjMuNDQ5MyIgeDI9IjU0LjU1NDEiIHkxPSI3MS40MTIiIHgxPSI1NC41NTQxIiBncmFkaWVudFVuaXRzPSJ1c2VyU3BhY2VPblVzZSIgaWQ9IlNWR0lEXzJfIj4mI3hhOwkJPHN0b3Agc3R5bGU9InN0b3AtY29sb3I6IzBFQTVFOSIgb2Zmc2V0PSIwIi8+JiN4YTsJCTxzdG9wIHN0eWxlPSJzdG9wLWNvbG9yOiMwMjg0QzciIG9mZnNldD0iMSIvPiYjeGE7CTwvbGluZWFyR3JhZGllbnQ+JiN4YTsJPHBhdGggZD0iTTQ5LjI0LDEzMC4zOGMtMi4zOCwyLjM5LTQuNjgsNC43NS03LjAzLDcuMDdjLTguMTYsOC4wNS0xNi4zMiwxNi4xLTI0LjQ5LDI0LjEzJiMxMDsmIzk7JiM5O2MtMi40MywyLjM5LTUuNjYsMi40OC03Ljg4LDAuMjljLTIuMTktMi4xNi0yLjEzLTUuNTMsMC4yMi03Ljg5YzcuNDItNy40NSwxNC44NC0xNC45LDIyLjMxLTIyLjNjMy4wMi0yLjk5LDYuMTctNS44NSw5LjM1LTguODUmIzEwOyYjOTsmIzk7Yy01Ljk4LTguOS03LjY4LTE4LjQtNC41OC0yOC41OGMyLjMzLTcuNjYsNy4wNS0xMy41OSwxMy44LTE3Ljg1YzEzLjM1LTguNDMsMzEuMDEtNi4wMyw0MS40LDYuMDkmIzEwOyYjOTsmIzk7YzEwLjksMTIuNzIsMTEuNDcsMjguMjEsMC45OCw0MS43NkM4NC4wOCwxMzYuMTgsNjUuNDUsMTQxLjMxLDQ5LjI0LDEzMC4zOHoiIGNsYXNzPSJzdDEiLz4mI3hhOwk8bGluZWFyR3JhZGllbnQgeTI9IjIyLjY4OTUiIHgyPSIxMTIuOTQ4MiIgeTE9IjguMzM5NyIgeDE9IjExMi45NDgyIiBncmFkaWVudFVuaXRzPSJ1c2VyU3BhY2VPblVzZSIgaWQ9IlNWR0lEXzNfIj4mI3hhOwkJPHN0b3Agc3R5bGU9InN0b3AtY29sb3I6IzBFQTVFOSIgb2Zmc2V0PSIwIi8+JiN4YTsJCTxzdG9wIHN0eWxlPSJzdG9wLWNvbG9yOiMwMjg0QzciIG9mZnNldD0iMSIvPiYjeGE7CTwvbGluZWFyR3JhZGllbnQ+JiN4YTsJPHBhdGggZD0iTTEzNC44OCw4LjM0Yy0xLjU4LDQuODQtMS44OCw5LjUyLTEsMTQuMzVjLTE0LjMzLDAtMjguNTYsMC00Mi43OCwwYy0wLjAzLTAuMDgtMC4wNS0wLjE1LTAuMDgtMC4yMyYjMTA7JiM5OyYjOTtDMTA1LjU0LDE3Ljc4LDEyMC4wNywxMy4xMSwxMzQuODgsOC4zNHoiIGNsYXNzPSJzdDIiLz4mI3hhOzwvZz4mI3hhOzwvc3ZnPg==;" vertex="1" parent="87GCZqK9oe9EleAZIWvs-94">
          <mxGeometry width="60" height="60" as="geometry" />
        </mxCell>
        <mxCell id="87GCZqK9oe9EleAZIWvs-93" value="Solicitud Revisión" style="rounded=0;whiteSpace=wrap;html=1;fillColor=none;strokeColor=none;" vertex="1" parent="87GCZqK9oe9EleAZIWvs-94">
          <mxGeometry x="7" y="62" width="60" height="23.68" as="geometry" />
        </mxCell>
        <mxCell id="87GCZqK9oe9EleAZIWvs-95" value="Tiene" style="rounded=0;whiteSpace=wrap;html=1;fillColor=none;strokeColor=none;" vertex="1" parent="1">
          <mxGeometry x="137" y="665" width="70" height="23.68" as="geometry" />
        </mxCell>
        <mxCell id="87GCZqK9oe9EleAZIWvs-98" style="edgeStyle=orthogonalEdgeStyle;rounded=0;orthogonalLoop=1;jettySize=auto;html=1;exitX=1;exitY=0.5;exitDx=0;exitDy=0;entryX=0.5;entryY=1;entryDx=0;entryDy=0;shadow=0;endArrow=openThin;endFill=0;" edge="1" parent="1" source="87GCZqK9oe9EleAZIWvs-40" target="87GCZqK9oe9EleAZIWvs-93">
          <mxGeometry relative="1" as="geometry">
            <Array as="points">
              <mxPoint x="500" y="270" />
              <mxPoint x="500" y="610" />
              <mxPoint x="275" y="610" />
            </Array>
          </mxGeometry>
        </mxCell>
        <mxCell id="87GCZqK9oe9EleAZIWvs-99" value="Tiene" style="rounded=0;whiteSpace=wrap;html=1;fillColor=none;strokeColor=none;rotation=-90;" vertex="1" parent="1">
          <mxGeometry x="479" y="392.6757894736843" width="60" height="23.684210526315788" as="geometry" />
        </mxCell>
        <mxCell id="87GCZqK9oe9EleAZIWvs-100" value="" style="endArrow=classic;html=1;rounded=0;shadow=0;startArrow=oval;startFill=1;" edge="1" parent="1">
          <mxGeometry width="50" height="50" relative="1" as="geometry">
            <mxPoint x="275" y="610" as="sourcePoint" />
            <mxPoint x="275" y="641" as="targetPoint" />
          </mxGeometry>
        </mxCell>
        <mxCell id="87GCZqK9oe9EleAZIWvs-101" style="edgeStyle=orthogonalEdgeStyle;rounded=0;orthogonalLoop=1;jettySize=auto;html=1;exitX=0.5;exitY=0;exitDx=0;exitDy=0;entryX=0.5;entryY=1;entryDx=0;entryDy=0;shadow=0;endArrow=openThin;endFill=0;" edge="1" parent="1" source="87GCZqK9oe9EleAZIWvs-17" target="87GCZqK9oe9EleAZIWvs-38">
          <mxGeometry relative="1" as="geometry">
            <Array as="points">
              <mxPoint x="270" y="220" />
              <mxPoint x="530" y="220" />
              <mxPoint x="530" y="747" />
              <mxPoint x="273" y="747" />
            </Array>
          </mxGeometry>
        </mxCell>
        <mxCell id="87GCZqK9oe9EleAZIWvs-102" value="Puede consultar y registrar (modificar estado de)" style="rounded=0;whiteSpace=wrap;html=1;fillColor=none;strokeColor=none;rotation=-90;" vertex="1" parent="1">
          <mxGeometry x="462.5" y="428.32" width="168" height="23.68" as="geometry" />
        </mxCell>
        <mxCell id="87GCZqK9oe9EleAZIWvs-104" value="" style="endArrow=classic;html=1;rounded=0;shadow=0;startArrow=oval;startFill=1;" edge="1" parent="1">
          <mxGeometry width="50" height="50" relative="1" as="geometry">
            <mxPoint x="260" y="548" as="sourcePoint" />
            <mxPoint x="260" y="638" as="targetPoint" />
          </mxGeometry>
        </mxCell>
        <mxCell id="87GCZqK9oe9EleAZIWvs-105" value="Genera y asigna" style="rounded=0;whiteSpace=wrap;html=1;fillColor=none;strokeColor=none;rotation=-90;" vertex="1" parent="1">
          <mxGeometry x="209" y="589.6800000000001" width="70" height="23.68" as="geometry" />
        </mxCell>
        <mxCell id="87GCZqK9oe9EleAZIWvs-106" style="edgeStyle=orthogonalEdgeStyle;rounded=0;orthogonalLoop=1;jettySize=auto;html=1;exitX=0;exitY=0.75;exitDx=0;exitDy=0;entryX=0.5;entryY=1;entryDx=0;entryDy=0;shadow=0;endArrow=openThin;endFill=0;" edge="1" parent="1" source="87GCZqK9oe9EleAZIWvs-43" target="87GCZqK9oe9EleAZIWvs-31">
          <mxGeometry relative="1" as="geometry">
            <Array as="points">
              <mxPoint x="10" y="285" />
              <mxPoint x="10" y="790" />
              <mxPoint x="450" y="790" />
            </Array>
          </mxGeometry>
        </mxCell>
        <mxCell id="87GCZqK9oe9EleAZIWvs-107" value="Movimiento genera" style="rounded=0;whiteSpace=wrap;html=1;fillColor=none;strokeColor=none;rotation=-90;" vertex="1" parent="1">
          <mxGeometry x="-54" y="466" width="110" height="23.68" as="geometry" />
        </mxCell>
        <mxCell id="87GCZqK9oe9EleAZIWvs-108" style="edgeStyle=orthogonalEdgeStyle;rounded=0;orthogonalLoop=1;jettySize=auto;html=1;entryX=0.5;entryY=1;entryDx=0;entryDy=0;shadow=0;startArrow=oval;startFill=1;endArrow=openThin;endFill=0;" edge="1" parent="1" source="87GCZqK9oe9EleAZIWvs-17" target="87GCZqK9oe9EleAZIWvs-50">
          <mxGeometry relative="1" as="geometry">
            <Array as="points">
              <mxPoint x="270" y="220" />
              <mxPoint x="-30" y="220" />
              <mxPoint x="-30" y="744" />
              <mxPoint x="90" y="744" />
            </Array>
          </mxGeometry>
        </mxCell>
        <mxCell id="87GCZqK9oe9EleAZIWvs-109" value="Consultar" style="rounded=0;whiteSpace=wrap;html=1;fillColor=none;strokeColor=none;rotation=-90;" vertex="1" parent="1">
          <mxGeometry x="-68" y="523.6757894736843" width="60" height="23.684210526315788" as="geometry" />
        </mxCell>
      </root>
    </mxGraphModel>
  </diagram>
</mxfile>
